<svg xmlns="http://www.w3.org/2000/svg" width="48" height="48" viewBox="0 0 48 48">
  <path d="M32.87 5.03C39.4 8.13 44.09 14.48 44.8 22h3C46.78 9.68 36.48 0 23.9 0c-.45 0-.88.04-1.33.07L30.2 7.7l2.67-2.67zM20.36 3.49L44.4 27.53a3 3 0 0 1 0 4.24L31.67 44.5a3 3 0 0 1-4.24 0L3.39 20.46a3 3 0 0 1 0-4.24L16.12 3.49a3 3 0 0 1 4.24 0zm9.2 38.89l12.72-12.73L18.24 5.61 5.51 18.34l24.05 24.04zm-14.63.59C8.4 39.87 3.71 33.52 3 26H0c1.02 12.32 11.32 22 23.9 22 .45 0 .88-.04 1.33-.07L17.6 40.3l-2.67 2.67z"/>
</svg>
