<?xml version="1.0" encoding="UTF-8"?>
<svg width="48px" height="48px" viewBox="0 0 48 48" version="1.1" xmlns="http://www.w3.org/2000/svg" xmlns:xlink="http://www.w3.org/1999/xlink">
    <!-- Generator: Sketch 45.2 (43514) - http://www.bohemiancoding.com/sketch -->
    <title>Behance</title>
    <desc>Created with Sketch.</desc>
    <defs></defs>
    <g id="Page-1" stroke="none" stroke-width="1" fill="none" fill-rule="evenodd">
        <g id="Behance" fill="#000000">
            <path d="M23.6698813,25.2996606 C24.3568091,26.3636381 24.7000754,27.6555049 24.7000754,29.1721988 C24.7000754,30.7406543 24.3130488,32.1477005 23.5256601,33.3905716 C23.0247382,34.2130279 22.4028087,34.9077594 21.6555253,35.4670613 C20.8139054,36.1138837 19.8174946,36.5574135 18.6720223,36.7943907 C17.522895,37.0317631 16.2791349,37.151684 14.9393589,37.151684 L3.03320312,37.151684 L3.03320312,10.7147432 L15.8007352,10.7147432 C19.0189435,10.7670975 21.300504,11.6994978 22.6477873,13.5306137 C23.4562165,14.6536627 23.8567763,16.0012423 23.8567763,17.5676234 C23.8567763,19.1838893 23.4513762,20.477139 22.6350444,21.4597204 C22.1809451,22.0106258 21.5101187,22.5117453 20.6220714,22.9640666 C21.9671815,23.4564932 22.9877938,24.2319294 23.6698813,25.2996606 Z M9.13020594,21.1374945 L14.72441,21.1374945 C15.8740312,21.1374945 16.8033692,20.9189895 17.5191413,20.4821769 C18.2344194,20.0460558 18.5913176,19.2708171 18.5913176,18.1577452 C18.5913176,16.928012 18.1187461,16.111779 17.171331,15.7189243 C16.3569748,15.4459905 15.3150257,15.3054242 14.0507189,15.3054242 L9.13020594,15.3054242 L9.13020594,21.1374945 Z M19.1299741,28.7945564 C19.1299741,27.4212935 18.5686966,26.4719028 17.4484136,25.9624857 C16.8219402,25.6729566 15.9380417,25.5249816 14.8047195,25.514412 L9.13020594,25.514412 L9.13020594,32.5597189 L14.7169026,32.5597189 C15.8646469,32.5597189 16.7529906,32.409472 17.3940837,32.0960377 C18.5502244,31.5197454 19.1299741,30.4229724 19.1299741,28.7945564 Z M45.3531514,24.4937009 C45.4817651,25.3586332 45.5399476,26.6135557 45.5163387,28.2538255 L31.7285895,28.2538255 C31.8046514,30.1569533 32.4616483,31.4878389 33.7076804,32.2494456 C34.4591127,32.7270551 35.3701761,32.9602786 36.4370182,32.9602786 C37.561944,32.9602786 38.4788356,32.6758861 39.1846307,32.0912962 C39.5691877,31.781418 39.908404,31.3440128 40.2016868,30.7921195 L45.2553575,30.7921195 C45.1229901,31.9161562 44.5144949,33.0561956 43.4209818,34.2147071 C41.7267772,36.0560964 39.3506827,36.9794088 36.299119,36.9794088 C33.7782106,36.9794088 31.5565118,36.2007128 29.6280959,34.6489514 C27.7061007,33.091757 26.7408062,30.5663046 26.7408062,27.0630123 C26.7408062,23.77783 27.6074178,21.2633424 29.3464693,19.5131286 C31.0919416,17.759655 33.344559,16.8869189 36.1212132,16.8869189 C37.7670148,16.8869189 39.2506168,17.1810907 40.5741925,17.7724966 C41.8936194,18.3644952 42.9840704,19.296204 43.8428783,20.5767109 C44.6200926,21.7044026 45.1199279,23.0083208 45.3531514,24.4937009 Z M40.3788024,24.9870166 C40.2861452,23.671047 39.8467642,22.6750314 39.0556218,21.9943268 C38.2709989,21.3117454 37.2907883,20.9690718 36.1212132,20.9690718 C34.8483125,20.9690718 33.8654348,21.3353542 33.1670483,22.0552751 C32.4639203,22.7737143 32.0264163,23.7504675 31.8471275,24.9871154 L40.3788024,24.9871154 L40.3788024,24.9870166 Z M41.4031684,14.4559017 L30.7571705,14.4559017 L30.7571705,11.8115162 L41.4040574,11.8115162 L41.4040574,14.4559017 L41.4031684,14.4559017 L41.4031684,14.4559017 Z" id="Combined-Shape"></path>
        </g>
    </g>
</svg>