<?xml version="1.0" encoding="UTF-8"?>
<svg width="48px" height="48px" viewBox="0 0 48 48" version="1.1" xmlns="http://www.w3.org/2000/svg" xmlns:xlink="http://www.w3.org/1999/xlink">
    <!-- Generator: Sketch 46 (44423) - http://www.bohemiancoding.com/sketch -->
    <title>Behance</title>
    <desc>Created with Sketch.</desc>
    <defs></defs>
    <g id="Page-1" stroke="none" stroke-width="1" fill="none" fill-rule="evenodd">
        <g id="Behance" fill="#000000">
            <path d="M23.3709243,25.3482783 C24.0822927,26.4501117 24.4377724,27.7879427 24.4377724,29.3586001 C24.4377724,30.9828607 24.0369755,32.4399692 23.2215717,33.7270612 C22.7028271,34.5787802 22.0587696,35.2982301 21.2848981,35.8774317 C20.4133337,36.5472679 19.3814709,37.0065782 18.195243,37.2519871 C17.0052302,37.4978051 15.7172175,37.6219928 14.3297728,37.6219928 L2,37.6219928 L2,10.2444345 L15.2217965,10.2444345 C18.5545076,10.2986515 20.9172452,11.2642263 22.3124645,13.1604927 C23.1496574,14.3234994 23.5644689,15.7190255 23.5644689,17.3411379 C23.5644689,19.0149099 23.1446448,20.354173 22.2992682,21.3717143 C21.8290122,21.9422208 21.134318,22.4611699 20.2146743,22.9295846 C21.607643,23.4395317 22.6645683,24.2425576 23.3709243,25.3482783 Z M8.31393212,21.0380238 L14.1071761,21.0380238 C15.2977004,21.0380238 16.260104,20.8117444 17.001343,20.3593901 C17.7420704,19.907752 18.111667,19.1049306 18.111667,17.9522559 C18.111667,16.6787693 17.6222815,15.833495 16.6411577,15.4266626 C15.797827,15.144018 14.7188056,14.9984503 13.4095153,14.9984503 L8.31393212,14.9984503 L8.31393212,21.0380238 Z M18.6694887,28.9675213 C18.6694887,27.5453982 18.0882411,26.5622285 16.9280988,26.0346865 C16.2793357,25.734856 15.3639884,25.5816162 14.190343,25.5706705 L8.31393212,25.5706705 L8.31393212,32.866647 L14.0994016,32.866647 C15.2879823,32.866647 16.2079329,32.7110544 16.8718358,32.3864682 C18.0691117,31.7896716 18.6694887,30.6538758 18.6694887,28.9675213 Z M45.8256778,24.5136428 C45.9588676,25.4093492 46.0191201,26.7089214 45.9946713,28.4075514 L31.7163586,28.4075514 C31.7951267,30.3783919 32.4754994,31.7566299 33.7658649,32.5453344 C34.5440328,33.039937 35.4875116,33.2814585 36.5923116,33.2814585 C37.7572619,33.2814585 38.7067761,32.9869475 39.4376832,32.381558 C39.8359226,32.0606545 40.1872081,31.6076865 40.4909258,31.0361571 L45.7244045,31.0361571 C45.5873274,32.2001867 44.9571822,33.3807882 43.8247622,34.5805192 C42.0702784,36.4874245 39.6096432,37.443588 36.449506,37.443588 C33.8389045,37.443588 31.5381584,36.6371863 29.5411301,35.0302138 C27.550751,33.4176149 26.5511116,30.8023077 26.5511116,27.1743695 C26.5511116,23.7723015 27.448557,21.1683493 29.2494833,19.3558635 C31.0570589,17.5400019 33.3898237,16.6362141 36.2652704,16.6362141 C37.969629,16.6362141 39.5060171,16.9408524 40.8766852,17.5533004 C42.2430568,18.1663621 43.3723057,19.1312208 44.2616697,20.4572877 C45.066537,21.6251022 45.5841562,22.9754134 45.8256778,24.5136428 Z M40.6743431,25.0245105 C40.5783892,23.6617192 40.1233752,22.6302657 39.3040842,21.9253419 C38.4915447,21.2184745 37.4764585,20.8636086 36.2652704,20.8636086 C34.9470803,20.8636086 33.9292321,21.2429233 33.2059973,21.9884587 C32.4778522,22.7324597 32.0247819,23.7439655 31.8391141,25.0246128 L40.6743431,25.0246128 L40.6743431,25.0245105 Z M41.7351557,14.1187022 L30.7103768,14.1187022 L30.7103768,11.3802303 L41.7360764,11.3802303 L41.7360764,14.1187022 L41.7351557,14.1187022 L41.7351557,14.1187022 Z" id="Combined-Shape"></path>
        </g>
    </g>
</svg>