<?xml version="1.0" encoding="UTF-8"?>
<svg width="48px" height="48px" viewBox="0 0 48 48" version="1.1" xmlns="http://www.w3.org/2000/svg" xmlns:xlink="http://www.w3.org/1999/xlink">
    <!-- Generator: Sketch 45.2 (43514) - http://www.bohemiancoding.com/sketch -->
    <title>Blogger</title>
    <desc>Created with Sketch.</desc>
    <defs></defs>
    <g id="Page-1" stroke="none" stroke-width="1" fill="none" fill-rule="evenodd">
        <g id="Blogger" fill="#0A0B09">
            <path d="M11.4083777,6 L36.6089509,6 C39.5836072,6 42.0173286,8.43275024 42.0173286,11.4083777 L42.0173286,36.6079797 C42.0173286,39.5836072 39.5836072,42.0163574 36.6089509,42.0163574 L11.4083777,42.0163574 C8.4337214,42.0163574 6,39.5836072 6,36.6079797 L6,11.4083777 C6,8.43275024 8.4337214,6 11.4083777,6 Z M19.9778739,12.9214415 C16.038858,12.9214415 12.9350377,16.0242906 12.9350377,19.9633066 L12.9350377,28.3764464 C12.9350377,32.0746152 16.1194641,35.0958871 19.3922658,35.0958871 L28.2977826,35.0958871 C31.9299127,35.0958871 35.0822909,32.0415959 35.0822909,28.3104077 L35.0822909,22.9865207 C35.0822909,21.9969109 34.793857,21.3297256 33.5905925,21.3297256 L32.6184636,21.3297256 C31.6638155,21.3297256 31.100544,20.7334347 31.100544,20.0361434 L31.100544,19.4136313 C31.100544,16.2466857 27.6451646,12.9214415 24.6666237,12.9214415 L19.9778739,12.9214415 Z M19.9778739,26.7691803 L27.9753582,26.7691803 C28.6852746,26.7691803 29.2660269,27.3499326 29.2660269,28.059849 C29.2660269,28.7658807 28.6804188,29.3505177 27.9753582,29.3505177 L19.9778739,29.3505177 C19.2689287,29.3505177 18.6872052,28.7697653 18.6872052,28.059849 C18.6872052,27.3538173 19.2708711,26.7691803 19.9778739,26.7691803 Z M19.9778739,18.7493593 L24.0033229,18.7493593 C24.7122681,18.7493593 25.2930205,19.3301117 25.2930205,20.040028 C25.2930205,20.7460597 24.7083835,21.3297256 24.0033229,21.3297256 L19.9778739,21.3297256 C19.2679576,21.3297256 18.6872052,20.7489732 18.6872052,20.040028 C18.6872052,19.3330252 19.2708711,18.7493593 19.9778739,18.7493593 Z" id="Combined-Shape"></path>
        </g>
    </g>
</svg>