<?xml version="1.0" encoding="UTF-8"?>
<svg width="48px" height="48px" viewBox="0 0 48 48" version="1.1" xmlns="http://www.w3.org/2000/svg" xmlns:xlink="http://www.w3.org/1999/xlink">
    <!-- Generator: Sketch 45.2 (43514) - http://www.bohemiancoding.com/sketch -->
    <title>Digg</title>
    <desc>Created with Sketch.</desc>
    <defs></defs>
    <g id="Page-1" stroke="none" stroke-width="1" fill="none" fill-rule="evenodd">
        <g id="Digg" fill-rule="nonzero" fill="#000000">
            <path d="M9.03707031,11 L13.4352393,11 L13.4352393,32.1112109 L2,32.1112109 L2,17.1574365 L9.03707031,17.1574365 L9.03707031,11 Z M9.03707031,28.5926758 L9.03707031,20.6759717 L6.39816895,20.6759717 L6.39816895,28.5926758 L9.03707031,28.5926758 Z M15.1945068,17.1574365 L19.5926758,17.1574365 L19.5926758,32.1112109 L15.1945068,32.1112109 L15.1945068,17.1574365 Z M15.1945068,11 L19.5926758,11 L19.5926758,15.3981689 L15.1945068,15.3981689 L15.1945068,11 Z M21.3519434,17.1574365 L32.7871826,17.1574365 L32.7871826,37.3890137 L21.3519434,37.3890137 L21.3519434,33.8704785 L28.3890137,33.8704785 L28.3890137,32.1112109 L21.3519434,32.1112109 L21.3519434,17.1574365 Z M28.3890137,28.5926758 L28.3890137,20.6759717 L25.7501123,20.6759717 L25.7501123,28.5926758 L28.3890137,28.5926758 Z M34.5464502,17.1574365 L45.9816895,17.1574365 L45.9816895,37.3890137 L34.5464502,37.3890137 L34.5464502,33.8704785 L41.5835205,33.8704785 L41.5835205,32.1112109 L34.5464502,32.1112109 L34.5464502,17.1574365 Z M41.5835205,28.5926758 L41.5835205,20.6759717 L38.9446191,20.6759717 L38.9446191,28.5926758 L41.5835205,28.5926758 Z" id="Combined-Shape"></path>
        </g>
    </g>
</svg>