<?xml version="1.0" encoding="UTF-8"?>
<svg width="48px" height="48px" viewBox="0 0 48 48" version="1.1" xmlns="http://www.w3.org/2000/svg" xmlns:xlink="http://www.w3.org/1999/xlink">
    <!-- Generator: Sketch 45.2 (43514) - http://www.bohemiancoding.com/sketch -->
    <title>Dribbble</title>
    <desc>Created with Sketch.</desc>
    <defs></defs>
    <g id="Page-1" stroke="none" stroke-width="1" fill="none" fill-rule="evenodd">
        <g id="Dribbble" fill="#000000">
            <path d="M24.0000683,43.9550753 C12.9643378,43.9550753 3.98608398,34.9889709 3.98608398,23.9679835 C3.98608398,12.946996 12.9643378,3.98075512 24.0000683,3.98075512 C35.0356622,3.98075512 44.013916,12.946996 44.013916,23.9679835 C44.013916,34.9889709 35.0356622,43.9550753 24.0000683,43.9550753 Z M37.232652,13.1980377 C36.8722659,13.6848319 34.0076064,17.3521694 27.6869267,19.9293391 C28.0847164,20.7425284 28.466125,21.5696416 28.8210506,22.4020788 C28.9469127,22.6972131 29.0694986,22.9908458 29.1893542,23.28325 C34.8775838,22.5688939 40.5293652,23.7136656 41.0930144,23.8327022 C41.0553377,19.803204 39.6135205,16.1031041 37.232652,13.1980377 Z M19.9939133,7.39636844 C20.4665104,8.02827261 23.5712908,12.2507957 26.3726097,17.3906652 C32.451394,15.1153187 35.0247414,11.6610731 35.3321616,11.223832 C32.3133825,8.54892123 28.3436756,6.92186016 24.0000683,6.92186016 C22.6207726,6.92186016 21.2795632,7.08703709 19.9939133,7.39636844 Z M7.26614301,20.4973567 C8.03073476,20.5074584 15.0738247,20.5380366 23.0702996,18.4173559 C20.2377199,13.3888785 17.1827656,9.16116797 16.7321466,8.54387037 C11.9495234,10.7968292 8.37460311,15.1998183 7.26614301,20.4973567 Z M11.2997365,35.4090117 C11.687015,34.7469389 16.378586,26.9890833 25.1952121,24.1431256 C25.4179962,24.0711849 25.6426915,24.0036125 25.8688883,23.9399989 C25.4397013,22.9700963 24.9722915,21.9992382 24.4829036,21.0427136 C15.9458497,23.594356 7.6617486,23.4877418 6.91381105,23.4724527 C6.90848717,23.6456837 6.90493791,23.8194607 6.90493791,23.9940568 C6.90493791,28.3787537 8.56940269,32.382315 11.2997365,35.4090117 Z M30.6777213,39.7093455 C30.4234034,38.2115592 29.4308402,32.991422 27.0308603,26.7630229 C26.9933201,26.7757184 26.9556433,26.7878677 26.9181031,26.8009727 C17.2758653,30.1563852 13.8146577,36.8341747 13.5069645,37.4622566 C16.4054784,39.7194472 20.0481077,41.0662535 24.0000683,41.0662535 C26.3681049,41.0662535 28.625159,40.5824626 30.6777213,39.7093455 Z M40.8788305,26.7039142 C40.2938857,26.5196258 35.5874351,25.117806 30.230515,25.9741324 C32.4664101,32.1102508 33.3763848,37.107877 33.551527,38.146444 C37.3867716,35.5565789 40.1168324,31.4541844 40.8788305,26.7039142 Z" id="Fill-1"></path>
        </g>
    </g>
</svg>