<?xml version="1.0" encoding="UTF-8"?>
<svg width="48px" height="48px" viewBox="0 0 48 48" version="1.1" xmlns="http://www.w3.org/2000/svg" xmlns:xlink="http://www.w3.org/1999/xlink">
    <!-- Generator: Sketch 45.2 (43514) - http://www.bohemiancoding.com/sketch -->
    <title>Facebook</title>
    <desc>Created with Sketch.</desc>
    <defs></defs>
    <g id="Page-1" stroke="none" stroke-width="1" fill="none" fill-rule="evenodd">
        <g id="Facebook" fill="#000000">
            <path d="M40.0590464,6 L7.98953758,6 C6.89049703,6 6,6.89049703 6,7.98953758 L6,40.0590464 C6,41.1578168 6.89049703,42.048584 7.98953758,42.048584 L25.2546177,42.048584 L25.2546177,28.0887295 L20.5568508,28.0887295 L20.5568508,22.6482289 L25.2546177,22.6482289 L25.2546177,18.6360624 C25.2546177,13.9798961 28.0984543,11.4445526 32.2520361,11.4445526 C34.2415737,11.4445526 35.9516576,11.5927211 36.4499199,11.658904 L36.4499199,16.5248294 L33.5692099,16.52618 C31.3102136,16.52618 30.8728665,17.5995578 30.8728665,19.1747097 L30.8728665,22.6482289 L36.2602858,22.6482289 L35.5587475,28.0887295 L30.8728665,28.0887295 L30.8728665,42.048584 L40.0590464,42.048584 C41.1578168,42.048584 42.048584,41.1578168 42.048584,40.0590464 L42.048584,7.98953758 C42.048584,6.89049703 41.1578168,6 40.0590464,6" id="Shape"></path>
        </g>
    </g>
</svg>