<?xml version="1.0" encoding="UTF-8"?>
<svg width="48px" height="48px" viewBox="0 0 48 48" version="1.1" xmlns="http://www.w3.org/2000/svg" xmlns:xlink="http://www.w3.org/1999/xlink">
    <!-- Generator: Sketch 45.2 (43514) - http://www.bohemiancoding.com/sketch -->
    <title>Flickr</title>
    <desc>Created with Sketch.</desc>
    <defs></defs>
    <g id="Page-1" stroke="none" stroke-width="1" fill="none" fill-rule="evenodd">
        <g id="Flickr" fill="#000000">
            <path d="M11.8337829,6.01441198 L36.1662171,6.01441198 C39.3751284,6.01441198 41.9856223,8.62511077 41.9856223,11.8338172 L41.9856223,36.1664563 C41.9856223,39.3751627 39.3751284,41.9858615 36.1662171,41.9858615 L11.8337829,41.9858615 C8.62507651,41.9858615 6.01437771,39.3751627 6.01437771,36.1664563 L6.01437771,11.8338172 C6.01437771,8.62511077 8.62507651,6.01441198 11.8337829,6.01441198 Z M22.260388,23.9999318 C22.260388,21.0849008 19.8972537,18.7215616 16.9818129,18.7215616 C14.0667819,18.7215616 11.7034427,21.0849008 11.7034427,23.9999318 C11.7034427,26.9155776 14.0667819,29.2785069 16.9818129,29.2785069 C19.8972537,29.2785069 22.260388,26.9155776 22.260388,23.9999318 Z M36.2965573,23.9999318 C36.2965573,21.0849008 33.933423,18.7215616 31.0179822,18.7215616 C28.1027463,18.7215616 25.739612,21.0849008 25.739612,23.9999318 C25.739612,26.9155776 28.1027463,29.2785069 31.0179822,29.2785069 C33.933423,29.2785069 36.2965573,26.9155776 36.2965573,23.9999318 Z" id="Combined-Shape"></path>
        </g>
    </g>
</svg>