<?xml version="1.0" encoding="UTF-8"?>
<svg width="48px" height="48px" viewBox="0 0 48 48" version="1.1" xmlns="http://www.w3.org/2000/svg" xmlns:xlink="http://www.w3.org/1999/xlink">
    <!-- Generator: Sketch 45.2 (43514) - http://www.bohemiancoding.com/sketch -->
    <title>GooglePlus</title>
    <desc>Created with Sketch.</desc>
    <defs></defs>
    <g id="Page-1" stroke="none" stroke-width="1" fill="none" fill-rule="evenodd">
        <g id="GooglePlus" fill="#000000">
            <path d="M16.0405606,22.4220692 L29.2534454,22.4220692 C29.3733808,23.1216925 29.473327,23.8213157 29.473327,24.7408205 C29.473327,32.7365148 24.1162118,38.4134577 16.0405606,38.4134577 C8.30472645,38.4134577 2.0480957,32.1568269 2.0480957,24.4209928 C2.0480957,16.6851586 8.30472645,10.4285278 16.0405606,10.4285278 C19.8185262,10.4285278 22.9768254,11.8077851 25.4155121,14.086558 L21.6175574,17.7445881 C20.5781171,16.7451263 18.7590967,15.5857506 16.0405606,15.5857506 C11.2631333,15.5857506 7.36523238,19.5436193 7.36523238,24.4209928 C7.36523238,29.2983663 11.2631333,33.2562349 16.0405606,33.2562349 C21.5775789,33.2562349 23.6564594,29.278377 23.9762872,27.2194858 L16.0405606,27.2194858 L16.0405606,22.4220692 Z M46.0244141,22.4220692 L46.0244141,26.4199163 L42.0265669,26.4199163 L42.0265669,30.4177635 L38.0287198,30.4177635 L38.0287198,26.4199163 L34.0308727,26.4199163 L34.0308727,22.4220692 L38.0287198,22.4220692 L38.0287198,18.4242221 L42.0265669,18.4242221 L42.0265669,22.4220692 L46.0244141,22.4220692 Z" id="Combined-Shape"></path>
        </g>
    </g>
</svg>