<?xml version="1.0" encoding="UTF-8"?>
<svg width="48px" height="48px" viewBox="0 0 48 48" version="1.1" xmlns="http://www.w3.org/2000/svg" xmlns:xlink="http://www.w3.org/1999/xlink">
    <!-- Generator: Sketch 45.2 (43514) - http://www.bohemiancoding.com/sketch -->
    <title>Hangouts</title>
    <desc>Created with Sketch.</desc>
    <defs></defs>
    <g id="Page-1" stroke="none" stroke-width="1" fill="none" fill-rule="evenodd">
        <g id="Hangouts" fill-rule="nonzero" fill="#000000">
            <path d="M40.8277857,18.129558 L40.8277857,18.129558 C41.0548811,19.3690959 41.1374465,20.6307901 41.0738268,21.8893524 C41.0442409,22.4756305 40.9974692,23.0623438 40.925245,23.6453588 C40.7183616,25.3193516 40.3296124,26.9509235 39.7231028,28.5276746 C39.7183168,28.5394219 39.7083099,28.5489938 39.7009134,28.559871 C39.478367,29.1357071 39.2268874,29.6982731 38.9627903,30.2564882 C38.4406872,31.3607361 37.8196022,32.4060298 37.1241175,33.4080325 C36.8095504,33.861392 36.4906325,34.3119233 36.1353849,34.735697 C35.8277792,35.1031269 35.5454085,35.4929639 35.2190941,35.8419027 C35.0078599,36.0685824 34.7988012,36.2993955 34.5880021,36.5262927 C34.0968606,37.0566693 33.5833567,37.5658909 33.0488859,38.0525739 C30.3604905,40.4966686 27.3449105,42.4465058 24.0606651,43.9895377 C24.0265108,44.0056359 23.9910513,44.0186885 23.9344902,44.041748 C23.9305744,43.9573414 23.9253534,43.8896855 23.9251358,43.8218122 C23.9247007,42.0729846 23.920785,40.3241571 23.9299218,38.5755471 C23.931227,38.3706216 23.8766237,38.3212394 23.6760492,38.3184113 C20.4089896,38.2775133 17.4016762,37.3605698 14.6467127,35.6119598 C13.7476078,35.0409097 12.9170289,34.3800143 12.1399656,33.6495051 C10.6639369,32.2617989 9.48615949,30.6550268 8.57052134,28.8520311 C8.52070401,28.7545719 8.47240948,28.6571126 8.42346232,28.5596534 C7.8689015,27.417975 7.44954003,26.2154501 7.17389578,24.976504 C6.80084675,23.3168338 6.67621433,21.6109825 6.80407282,19.9147153 C7.06642958,16.3961761 8.28075417,13.2404984 10.4857692,10.4896682 C13.1665506,7.14472823 16.6300515,5.07393716 20.8475561,4.27511956 C21.4246975,4.16569547 22.0066248,4.09912733 22.5913802,4.04756966 C22.6331484,4.04365389 22.6857938,4.06453801 22.7103761,4.00732422 L24.9813067,4.00732422 C25.2976141,4.08281161 25.6230583,4.07780813 25.9439341,4.11587814 C28.5759859,4.42674697 31.0031123,5.30431512 33.2311869,6.73661771 C34.423641,7.50205081 35.5146258,8.41505439 36.4782326,9.45394634 C38.7696121,11.923276 40.2201883,14.8168144 40.8277857,18.129558 Z M18.7138951,28.6549372 L18.7138951,28.6549372 C19.4069869,28.4674152 20.0182825,28.1256553 20.5830239,27.6927449 C20.6387149,27.6387942 20.6937533,27.5837559 20.7507495,27.5308929 C21.8410746,26.515185 22.4210441,25.2625729 22.4321387,23.7730565 C22.4493246,21.5286662 22.4367071,19.2834057 22.4362721,17.0390154 C22.4362721,16.9359 22.4438861,16.8314794 22.402988,16.7327149 C22.5726715,16.2101769 22.1338874,15.6756739 21.6037353,15.6765441 C19.6008176,15.6787195 17.5978999,15.6771967 15.5949823,15.6776318 C15.3974533,15.6776318 15.2323382,15.754642 15.0820161,15.8819046 C14.8053015,16.1170685 14.7765858,16.4255443 14.8050839,16.7546868 C14.8035611,18.8143832 14.7994278,20.8742971 14.8020383,22.9339935 C14.8024734,23.2922867 15.0683109,23.6090292 15.4155094,23.7051831 C15.530372,23.7369444 15.6465399,23.7410777 15.7644482,23.7412952 C17.126702,23.7430356 18.4885207,23.7454286 19.8507744,23.7480391 C19.8274974,23.8487615 19.8042203,23.9497014 19.7798555,24.0499887 C19.6232245,24.6871719 19.2701524,25.1759908 18.7028004,25.5147051 C18.3947597,25.6985289 18.051912,25.7666198 17.7136328,25.8518967 C17.5981175,25.8806123 17.5126231,25.9376086 17.4371357,26.02071 C17.2848557,26.1884356 17.3614308,26.3922733 17.3501186,26.5824058 L17.3477256,28.5202781 C17.4343077,28.729772 17.5857175,28.8587749 17.8180534,28.8248382 C18.1184802,28.7808946 18.4191245,28.734993 18.7138951,28.6549372 Z M29.7946614,28.511794 L29.7946614,28.511794 C29.8403454,28.4887344 29.8849417,28.4628468 29.9317134,28.4428329 C31.7869195,27.6712081 33.0456228,25.7916373 33.0473631,23.7830635 C33.049321,21.5345399 33.0480158,19.2862338 33.0480158,17.0379277 C33.0480158,16.9348123 33.0554122,16.8306093 33.0149492,16.7318448 C33.1844152,16.2093067 32.7458487,15.6748037 32.2159141,15.6754564 C30.226049,15.6778493 28.236619,15.676109 26.2469714,15.6771967 C26.0957791,15.6771967 25.9528534,15.7111334 25.8214575,15.7937997 C25.4831782,16.0052514 25.3737541,16.317208 25.4133469,16.6979081 C25.4146522,16.7174869 25.4168276,16.7370658 25.4168276,16.7566447 C25.4155224,18.7911061 25.4126943,20.8251324 25.4120417,22.8593762 C25.4120417,23.3760407 25.7638086,23.7312883 26.277645,23.7397724 C26.414697,23.7421654 26.5517491,23.7402075 26.6885835,23.7404251 L30.4633883,23.747604 C30.3633186,24.3184366 30.1433827,24.8235713 29.7076442,25.2282011 C29.3445651,25.5651751 28.905781,25.7157148 28.439369,25.8225284 C28.0715039,25.9064999 27.957729,26.0313696 27.9572939,26.327228 C27.9570763,26.4118522 27.9601219,26.4962588 27.9618623,26.5813181 L27.9507676,27.7369061 C27.9525079,27.952056 27.9540307,28.1674235 27.9570763,28.3823559 C27.9607746,28.6890915 28.19137,28.8613854 28.4963652,28.8165716 C28.8962091,28.7582701 29.2873513,28.6673372 29.6750128,28.5576955 L29.7183038,28.5331132 C29.7441914,28.5257167 29.7696439,28.5185378 29.7946614,28.511794 Z" id="Shape"></path>
        </g>
    </g>
</svg>