<?xml version="1.0" encoding="UTF-8"?>
<svg width="48px" height="48px" viewBox="0 0 48 48" version="1.1" xmlns="http://www.w3.org/2000/svg" xmlns:xlink="http://www.w3.org/1999/xlink">
    <!-- Generator: Sketch 45.2 (43514) - http://www.bohemiancoding.com/sketch -->
    <title>Instagram</title>
    <desc>Created with Sketch.</desc>
    <defs></defs>
    <g id="Page-1" stroke="none" stroke-width="1" fill="none" fill-rule="evenodd">
        <g id="Instagram" fill="#000000">
            <path d="M24.002711,5.05458069 C29.1485255,5.05458069 29.7937737,5.07639232 31.8147339,5.16860286 C33.8314822,5.26058776 35.208849,5.58091786 36.4140543,6.04934139 C37.6600248,6.53348433 38.7166854,7.18136492 39.7701118,8.23471617 C40.8234631,9.28814263 41.4713437,10.3448032 41.9555618,11.5907737 C42.4239102,12.795979 42.7442403,14.1733458 42.8362252,16.1900941 C42.9284357,18.2110543 42.9502473,18.8563025 42.9502473,24.0021922 C42.9502473,29.1480067 42.9284357,29.7932549 42.8362252,31.8142151 C42.7442403,33.8309634 42.4239102,35.2083302 41.9555618,36.4135355 C41.4713437,37.659506 40.8234631,38.7161666 39.7701118,39.769593 C38.7166854,40.8229443 37.6600248,41.4708249 36.4140543,41.955043 C35.208849,42.4233914 33.8314822,42.7437215 31.8147339,42.8357064 C29.7937737,42.9279169 29.1485255,42.9497285 24.002711,42.9497285 C18.8568213,42.9497285 18.2115731,42.9279169 16.1906129,42.8357064 C14.1738646,42.7437215 12.7964978,42.4233914 11.5912925,41.955043 C10.345322,41.4708249 9.28866143,40.8229443 8.23523497,39.769593 C7.18188372,38.7161666 6.53400313,37.659506 6.04986019,36.4135355 C5.58143665,35.2083302 5.26110656,33.8309634 5.16912166,31.8142151 C5.07691112,29.7932549 5.05509949,29.1480067 5.05509949,24.0021922 C5.05509949,18.8563025 5.07691112,18.2110543 5.16912166,16.1900941 C5.26110656,14.1733458 5.58143665,12.795979 6.04986019,11.5907737 C6.53400313,10.3448032 7.18188372,9.28814263 8.23523497,8.23471617 C9.28866143,7.18136492 10.345322,6.53348433 11.5912925,6.04934139 C12.7964978,5.58091786 14.1738646,5.26058776 16.1906129,5.16860286 C18.2115731,5.07639232 18.8568213,5.05458069 24.002711,5.05458069 Z M24.002711,8.46855187 C18.9434661,8.46855187 18.3441728,8.48788149 16.3462276,8.57903906 C14.4988579,8.66327707 13.4955981,8.97194922 12.8279367,9.23143239 C11.9435127,9.57515358 11.3123293,9.98573869 10.649331,10.6488122 C9.98625749,11.3118105 9.57567238,11.9429939 9.23195119,12.8274179 C8.97246802,13.4950793 8.66379587,14.4983391 8.57955785,16.3457088 C8.48840029,18.343654 8.46907067,18.9429473 8.46907067,24.0021922 C8.46907067,29.0613619 8.48840029,29.6606552 8.57955785,31.6586004 C8.66379587,33.5059702 8.97246802,34.5092299 9.23195119,35.1768914 C9.57567238,36.0613153 9.9863327,36.6924987 10.649331,37.355497 C11.3123293,38.0185705 11.9435127,38.4291556 12.8279367,38.7728768 C13.4955981,39.03236 14.4988579,39.3410321 16.3462276,39.4252702 C18.3439472,39.5164277 18.94309,39.5357573 24.002711,39.5357573 C29.0622568,39.5357573 29.6614749,39.5164277 31.6591192,39.4252702 C33.506489,39.3410321 34.5097487,39.03236 35.1774102,38.7728768 C36.0618341,38.4291556 36.6930175,38.0185705 37.3560158,37.355497 C38.0190893,36.6924987 38.4296744,36.0613153 38.7733956,35.1768914 C39.0328788,34.5092299 39.3415509,33.5059702 39.425789,31.6586004 C39.5169465,29.6606552 39.5362761,29.0613619 39.5362761,24.0021922 C39.5362761,18.9429473 39.5169465,18.343654 39.425789,16.3457088 C39.3415509,14.4983391 39.0328788,13.4950793 38.7733956,12.8274179 C38.4296744,11.9429939 38.0190893,11.3118105 37.3560158,10.6488122 C36.6930175,9.98573869 36.0618341,9.57515358 35.1774102,9.23143239 C34.5097487,8.97194922 33.506489,8.66327707 31.6591192,8.57903906 C29.661174,8.48788149 29.0618807,8.46855187 24.002711,8.46855187 Z" id="frame"></path>
            <path d="M24.002711,30.3180126 C20.5145051,30.3180126 17.6868154,27.4903229 17.6868154,24.0021922 C17.6868154,20.5139863 20.5145051,17.6862966 24.002711,17.6862966 C27.4908417,17.6862966 30.3185314,20.5139863 30.3185314,24.0021922 C30.3185314,27.4903229 27.4908417,30.3180126 24.002711,30.3180126 Z M24.002711,14.2723255 C18.6290026,14.2723255 14.2728442,18.6284838 14.2728442,24.0021922 C14.2728442,29.3758254 18.6290026,33.7319838 24.002711,33.7319838 C29.3763442,33.7319838 33.7325026,29.3758254 33.7325026,24.0021922 C33.7325026,18.6284838 29.3763442,14.2723255 24.002711,14.2723255 L24.002711,14.2723255 Z" id="lens"></path>
            <path d="M36.3906632,13.8879143 C36.3906632,15.1436624 35.3726618,16.1615886 34.1169137,16.1615886 C32.8612408,16.1615886 31.8432394,15.1436624 31.8432394,13.8879143 C31.8432394,12.6321662 32.8612408,11.6141648 34.1169137,11.6141648 C35.3726618,11.6141648 36.3906632,12.6321662 36.3906632,13.8879143" id="flash"></path>
        </g>
    </g>
</svg>