<?xml version="1.0" encoding="UTF-8"?>
<svg width="48px" height="48px" viewBox="0 0 48 48" version="1.1" xmlns="http://www.w3.org/2000/svg" xmlns:xlink="http://www.w3.org/1999/xlink">
    <!-- Generator: Sketch 45.2 (43514) - http://www.bohemiancoding.com/sketch -->
    <title>LinkedIn</title>
    <desc>Created with Sketch.</desc>
    <defs></defs>
    <g id="Page-1" stroke="none" stroke-width="1" fill="none" fill-rule="evenodd">
        <g id="LinkedIn" fill="#000000">
            <path d="M39.3611191,6.03823691 C40.8285415,6.03823691 42.0230713,7.1997797 42.0230713,8.63321546 L42.0230713,39.4270942 C42.0230713,40.86053 40.8285415,42.024072 39.3611191,42.024072 L8.69219118,42.024072 C7.22776762,42.024072 6.03823585,40.86053 6.03823585,39.4270942 L6.03823585,8.63321546 C6.03823585,7.1997797 7.22776762,6.03823691 8.69219118,6.03823691 L39.3611191,6.03823691 Z M36.7031653,36.7021668 L36.7031653,27.2838741 C36.7031653,22.6586947 35.7045584,19.1030942 30.2996859,19.1030942 C27.7037078,19.1030942 25.9623932,20.5265339 25.2506733,21.8770024 L25.1767025,21.8770024 L25.1767025,19.5289266 L20.0607162,19.5289266 L20.0607162,36.7021668 L25.3916179,36.7021668 L25.3916179,28.2085101 C25.3916179,25.9673923 25.815451,23.7972465 28.5933576,23.7972465 C31.3322795,23.7972465 31.3662661,26.359238 31.3662661,28.3504542 L31.3662661,36.7021668 L36.7031653,36.7021668 Z M14.0430849,17.1828501 C15.7504129,17.1828501 17.1358675,15.7963958 17.1358675,14.0870687 C17.1358675,12.3787411 15.7504129,10.9922869 14.0430849,10.9922869 C12.3287597,10.9922869 10.9463039,12.3787411 10.9463039,14.0870687 C10.9463039,15.7963958 12.3287597,17.1828501 14.0430849,17.1828501 Z M11.3701371,36.7021668 L16.713034,36.7021668 L16.713034,19.5289266 L11.3701371,19.5289266 L11.3701371,36.7021668 Z" id="Combined-Shape"></path>
        </g>
    </g>
</svg>