<?xml version="1.0" encoding="UTF-8"?>
<svg width="48px" height="48px" viewBox="0 0 48 48" version="1.1" xmlns="http://www.w3.org/2000/svg" xmlns:xlink="http://www.w3.org/1999/xlink">
    <!-- Generator: Sketch 45.2 (43514) - http://www.bohemiancoding.com/sketch -->
    <title>MySpace</title>
    <desc>Created with Sketch.</desc>
    <defs></defs>
    <g id="Page-1" stroke="none" stroke-width="1" fill="none" fill-rule="evenodd">
        <g id="MySpace" fill-rule="nonzero" fill="#000000">
            <path d="M22.5895536,25.9497297 C19.1655243,25.9497297 16.4049777,23.1964524 16.405198,19.7975349 C16.405198,16.3845196 19.1730138,13.631022 22.5895536,13.631022 C26.0025689,13.631022 28.7734686,16.3988378 28.7734686,19.7975349 C28.7734686,23.1962321 26.0025689,25.9497297 22.5895536,25.9497297 Z M23.1307811,27.3839715 C26.6259608,27.6853143 29.3759339,30.8117456 29.3763744,34.3675022 L29.3763744,36.7626046 C29.3763744,37.0923635 29.103668,37.3791678 28.759591,37.3791678 L28.5448182,37.3791678 L16.6274603,37.3791678 L16.4054183,37.3791678 C16.0681699,37.3791678 15.7886348,37.0923635 15.7886348,36.7626046 L15.7886348,34.3675022 C15.7886348,30.8117456 18.5421324,27.6853143 22.0377527,27.3839715 C22.0807072,27.3839715 22.1342352,27.3839715 22.1771898,27.3839715 C22.2128751,27.3698736 22.249001,27.3698736 22.2886514,27.3698736 C22.3816094,27.3626044 22.4853612,27.3626044 22.5822844,27.3626044 L22.5895536,27.3626044 C22.6822914,27.3626044 22.786704,27.3698736 22.8831866,27.3698736 C22.9193125,27.3839715 22.9545572,27.3839715 22.9909034,27.3839715 C23.0373824,27.3839715 23.0876062,27.3839715 23.1307811,27.3839715 Z M8.11628913,27.0971672 C5.04735085,27.0971672 2.55224148,24.6161557 2.55224148,21.5544867 C2.55224148,18.4928176 5.04757113,16.0118062 8.11628913,16.0118062 C11.1922764,16.0118062 13.6803368,18.4925974 13.6803368,21.5542664 C13.6803368,24.6159354 11.1922764,27.0971672 8.11628913,27.0971672 Z M8.60729282,28.3882271 C11.7586157,28.660493 14.232358,31.4567249 14.2325783,34.6690653 L14.2325783,36.8203179 C14.2325783,37.1214404 13.9814593,37.3652901 13.6732878,37.3652901 L13.4834066,37.3652901 L2.75644086,37.3652901 L2.55929043,37.3652901 C2.2508987,37.3652901 2,37.1212201 2,36.8203179 L2,34.6690653 C2,31.4569451 4.47374224,28.6607133 7.62528544,28.373909 C7.66801972,28.373909 7.71097428,28.373909 7.75040437,28.373909 C7.78630998,28.373909 7.81516663,28.373909 7.84358273,28.373909 C7.94072612,28.3593705 8.02685553,28.3593705 8.11628913,28.3593705 L8.12333808,28.3593705 C8.21299196,28.3593705 8.29912137,28.3593705 8.38855497,28.373909 C8.41741163,28.373909 8.45309695,28.373909 8.48195361,28.373909 C8.52843265,28.373909 8.56411798,28.3882271 8.60729282,28.3882271 Z M38.5109375,24.6879669 C34.71045,24.6879669 31.6349033,21.6190287 31.634683,17.8473978 C31.634683,14.0618893 34.7102297,11 38.5109375,11 C42.2966663,11 45.380143,14.0689383 45.380143,17.8473978 C45.380143,21.6333469 42.2966663,24.6879669 38.5109375,24.6879669 Z M39.1131825,26.2794886 C42.9923099,26.6092474 46.0544195,30.0799761 46.0541992,34.0232049 L46.0541992,36.6764752 C46.0541992,37.0632865 45.7455872,37.3789475 45.3726535,37.3789475 L45.129024,37.3789475 L31.8855817,37.3789475 L31.634683,37.3789475 C31.2544801,37.3789475 30.9535779,37.0635068 30.9535779,36.6764752 L30.9535779,34.0232049 C30.9535779,30.0799761 34.0075371,26.6092474 37.894154,26.2794886 C37.9516471,26.2651704 37.9946016,26.2651704 38.0520947,26.2651704 C38.0880003,26.2651704 38.1311751,26.2510725 38.1668604,26.2510725 C38.2816262,26.2510725 38.3820738,26.2510725 38.496399,26.2510725 L38.5109375,26.2510725 C38.6109445,26.2510725 38.7261509,26.2510725 38.8404761,26.2510725 C38.8838712,26.2651704 38.9268258,26.2651704 38.9627314,26.2651704 C39.0127349,26.2651704 39.063179,26.2794886 39.1131825,26.2794886 Z" id="Combined-Shape"></path>
        </g>
    </g>
</svg>