<?xml version="1.0" encoding="UTF-8"?>
<svg width="48px" height="48px" viewBox="0 0 48 48" version="1.1" xmlns="http://www.w3.org/2000/svg" xmlns:xlink="http://www.w3.org/1999/xlink">
    <!-- Generator: Sketch 45.2 (43514) - http://www.bohemiancoding.com/sketch -->
    <title>Pinterest</title>
    <desc>Created with Sketch.</desc>
    <defs></defs>
    <g id="Page-1" stroke="none" stroke-width="1" fill="none" fill-rule="evenodd">
        <g id="Pinterest" fill="#000000">
            <path d="M23.9999181,4.06134033 C12.9612144,4.06134033 4.01248169,13.0101097 4.01248169,24.0488586 C4.01248169,32.5165854 9.28066345,39.748937 16.715822,42.6612438 C16.5411662,41.0798325 16.3833862,38.654139 16.7852911,36.9277267 C17.1485292,35.3677789 19.1290536,26.9926233 19.1290536,26.9926233 C19.1290536,26.9926233 18.5311935,25.7952597 18.5311935,24.0251014 C18.5311935,21.245835 20.1420899,19.170929 22.147846,19.170929 C23.8531155,19.170929 24.6767502,20.4511971 24.6767502,21.9864047 C24.6767502,23.7013479 23.5849058,26.2653249 23.0212887,28.641374 C22.5505701,30.6307541 24.0190876,32.2531261 25.9812617,32.2531261 C29.533688,32.2531261 32.264282,28.5073506 32.264282,23.1003723 C32.264282,18.3146862 28.8257259,14.9686873 23.9155394,14.9686873 C18.2284131,14.9686873 14.8902923,19.2343362 14.8902923,23.6426922 C14.8902923,25.3605846 15.5520509,27.2026699 16.3778156,28.2040774 C16.5410024,28.4019996 16.5650872,28.5753454 16.5164261,28.7773636 C16.3647082,29.4086502 16.027521,30.7662521 15.9613287,31.0441296 C15.8740008,31.4099907 15.6714919,31.4876522 15.2928526,31.3113573 C12.7963892,30.1493837 11.2357923,26.4996202 11.2357923,23.5681437 C11.2357923,17.2631427 15.8168199,11.4727722 24.442292,11.4727722 C31.3757658,11.4727722 36.7642077,16.4136175 36.7642077,23.0166486 C36.7642077,29.905094 32.4207513,35.4488811 26.3925056,35.4488811 C24.3670884,35.4488811 22.4630783,34.3966822 21.8113141,33.1537703 C21.8113141,33.1537703 20.8090914,36.9699982 20.5661135,37.9052132 C20.1147282,39.6412922 18.8967254,41.8174531 18.0819382,43.1450718 C19.9520329,43.7240925 21.9394387,44.036377 23.9999181,44.036377 C35.0387856,44.036377 43.9875183,35.0876076 43.9875183,24.0488586 C43.9875183,13.0101097 35.0387856,4.06134033 23.9999181,4.06134033" id="Fill-4"></path>
        </g>
    </g>
</svg>