<?xml version="1.0" encoding="UTF-8"?>
<svg width="48px" height="48px" viewBox="0 0 48 48" version="1.1" xmlns="http://www.w3.org/2000/svg" xmlns:xlink="http://www.w3.org/1999/xlink">
    <!-- Generator: Sketch 45.2 (43514) - http://www.bohemiancoding.com/sketch -->
    <title>RenRen</title>
    <desc>Created with Sketch.</desc>
    <defs></defs>
    <g id="Page-1" stroke="none" stroke-width="1" fill="none" fill-rule="evenodd">
        <g id="RenRen" fill-rule="nonzero" fill="#000000">
            <path d="M9.20787134,36.6910119 C6.1592718,33.0684129 4.63609531,28.8976502 4.63609531,24.1832168 C4.63609531,21.0346447 5.33927266,18.0905108 6.74562735,15.3541849 C8.15198204,12.617859 10.0851581,10.347697 12.5440322,8.5448222 C15.0017831,6.74307067 17.7392323,5.58720887 20.7563798,5.08285323 L20.7563798,17.3356623 C20.7563798,21.5794387 19.6915042,25.4514072 17.5595064,28.9459515 C15.4275087,32.4438657 12.645128,35.0240547 9.20787134,36.6910119 Z M27.3107565,35.832821 C25.6673883,33.7446314 24.5519649,31.4868256 23.9633627,29.0627733 C23.3904866,31.4868256 22.2829261,33.7446314 20.6406813,35.832821 C18.9984364,37.9210106 17.0147125,39.6980498 14.6906327,41.1616921 C17.5707393,42.7455261 20.6609004,43.5374431 23.9633627,43.5374431 C27.2826743,43.5374431 30.3795752,42.7455261 33.260805,41.1616921 C30.935602,39.6991731 28.9541246,37.9221339 27.3107565,35.832821 Z M41.3338651,15.3541849 C39.9275104,12.6167357 37.9920878,10.347697 35.5354602,8.5448222 C33.0788326,6.74194738 30.3380136,5.58720887 27.3231126,5.08285323 L27.3231126,17.3356623 C27.3231126,21.5794387 28.3868649,25.4514072 30.519986,28.9459515 C32.6497372,32.4404958 35.4343644,35.0206849 38.8727444,36.6910119 C41.9224672,33.0684129 43.4422738,28.8976502 43.4422738,24.1832168 C43.4422738,21.035768 42.7379732,18.0916341 41.3338651,15.3541849 Z" id="Shape"></path>
        </g>
    </g>
</svg>