<?xml version="1.0" encoding="UTF-8"?>
<svg width="48px" height="48px" viewBox="0 0 48 48" version="1.1" xmlns="http://www.w3.org/2000/svg" xmlns:xlink="http://www.w3.org/1999/xlink">
    <!-- Generator: Sketch 45.2 (43514) - http://www.bohemiancoding.com/sketch -->
    <title>Skype</title>
    <desc>Created with Sketch.</desc>
    <defs></defs>
    <g id="Page-1" stroke="none" stroke-width="1" fill="none" fill-rule="evenodd">
        <g id="Skype" fill="#000000">
            <path d="M41.4399688,27.1425191 C42.3237822,28.6967182 42.8298076,30.4968558 42.8298076,32.4155979 C42.8298076,38.2907294 38.0937598,43.0526654 32.2532463,43.0526654 C30.3462443,43.0526654 28.5563416,42.5451349 27.0111733,41.655 C26.0078524,41.8323045 24.9762351,41.9250206 23.9214387,41.9250206 C14.0989485,41.9250206 6.13559713,33.9144081 6.13559713,24.0350239 C6.13559713,22.9754111 6.22650709,21.9377733 6.40320956,20.929335 C5.51759,19.3760389 5.01367188,17.5746972 5.01367188,15.6559552 C5.01367188,9.78232879 9.74821449,5.01948969 15.5881259,5.01948969 C17.4969341,5.01948969 19.2877399,5.52641809 20.8320051,6.41595098 C21.8347239,6.23924851 22.8663413,6.1477365 23.9214387,6.1477365 C33.7442299,6.1477365 41.7078823,14.1571449 41.7078823,24.0350239 C41.7078823,25.0961419 41.6157682,26.1343818 41.4399688,27.1425191 Z M23.993986,35.477638 C30.0045794,35.477638 33.0551806,32.4378738 33.0551806,28.4995459 C33.0551806,25.9555721 31.8363248,23.2842642 27.2808929,22.2553561 L23.1222137,21.3173579 C21.5406212,20.9519119 19.7558359,20.4377589 19.7558359,18.9238973 C19.7558359,17.4058214 20.9725844,16.3260398 23.2799515,16.3260398 C27.9268955,16.3260398 27.5427858,19.5717061 29.8507549,19.5717061 C31.0650953,19.5717061 32.1102588,18.8934937 32.1102588,17.6478466 C32.1102588,14.7387278 27.4886011,12.593915 23.6011466,12.593915 C19.3780478,12.593915 14.9478428,14.3455874 14.9478428,19.1930149 C14.9478428,21.5262702 15.7410473,24.0443558 20.2663766,25.1945775 L25.8847326,26.6190342 C27.5852305,27.0452876 28.0873425,28.0200109 28.0873425,28.8969007 C28.0873425,30.3535673 26.5755881,31.9071643 23.993986,31.9071643 C18.9508914,31.9071643 19.65439,27.8514362 16.9511733,27.8514362 C15.737134,27.8514362 14.7879978,28.6855802 14.7879978,29.8975123 C14.7879978,32.2611713 17.6751417,35.477638 23.993986,35.477638 Z" id="Fill-21"></path>
        </g>
    </g>
</svg>