<?xml version="1.0" encoding="UTF-8"?>
<svg width="48px" height="48px" viewBox="0 0 48 48" version="1.1" xmlns="http://www.w3.org/2000/svg" xmlns:xlink="http://www.w3.org/1999/xlink">
    <!-- Generator: Sketch 45.2 (43514) - http://www.bohemiancoding.com/sketch -->
    <title>SnapChat</title>
    <desc>Created with Sketch.</desc>
    <defs></defs>
    <g id="Page-1" stroke="none" stroke-width="1" fill="none" fill-rule="evenodd">
        <g id="SnapChat" fill="#0B0C0A">
            <path d="M24.3941934,5.01564829 L24.392566,5.01564829 C24.357639,5.01564829 24.3248402,5.01564829 24.2936689,5.01627422 C24.2936689,5.01627422 23.6452039,5.0227839 23.5936272,5.0227839 C21.9247688,5.0227839 16.2686022,5.48772576 13.6001313,11.4705034 C12.7026709,13.4832485 12.9178661,16.9017103 13.0903728,19.6486729 C13.110653,19.972655 13.1323102,20.3089054 13.1508378,20.6337638 C13.0127573,20.7102526 12.7606321,20.8053942 12.3637916,20.8053942 C11.8341284,20.8053942 11.2080718,20.6381453 10.5032731,20.3077787 C10.3161196,20.2201483 10.1004236,20.1763331 9.86206892,20.1763331 C9.03659057,20.1763331 8.04924635,20.7193912 7.8955176,21.5288457 C7.78472774,22.1117131 8.04549077,22.9619783 9.91927906,23.7020796 C10.0884057,23.7689291 10.2917082,23.8332748 10.5064027,23.9011258 C11.2804295,24.1469917 12.4505457,24.5182942 12.7681433,25.2662822 C12.9325129,25.6537338 12.8669153,26.1524759 12.5734786,26.7481123 C12.5670941,26.7616324 12.5605844,26.7749021 12.5548259,26.7887978 C12.4517976,27.0284043 9.97536251,32.673805 4.47730613,33.5789018 C4.05442687,33.6486306 3.75235237,34.0258168 3.7757622,34.4535784 C3.783023,34.5807676 3.8131929,34.7074562 3.86527039,34.8303891 C4.27788438,35.7950746 6.01885003,36.5020015 9.18819116,36.9938584 C9.29409876,37.1371967 9.4041375,37.6431997 9.47161291,37.9516587 C9.53783645,38.2558614 9.60618816,38.5695782 9.70358309,38.9005707 C9.79910022,39.2259299 10.0472194,39.6148837 10.6851687,39.6148837 C10.9428021,39.6148837 11.2468796,39.5554202 11.5987782,39.4863173 C12.126814,39.3831638 12.8498899,39.2419537 13.7549868,39.2419537 C14.2569838,39.2419537 14.777258,39.2855185 15.3011626,39.3723978 C16.3238093,39.5427764 17.1928525,40.1570654 18.1989747,40.8682487 C19.639994,41.8871399 21.2719223,43.0406063 23.7524886,43.0406063 C23.8205899,43.0406063 23.889192,43.0386033 23.9569178,43.0335959 C24.0374125,43.0371011 24.1419431,43.0406063 24.2531085,43.0406063 C26.7344258,43.0406063 28.3661038,41.8870147 29.8061217,40.8686243 C30.8144972,40.1564395 31.6829144,39.5424008 32.7055612,39.3723978 C33.2285895,39.2855185 33.7489888,39.2419537 34.251111,39.2419537 C35.114646,39.2419537 35.7979127,39.3517421 36.4073196,39.4707942 C36.7891377,39.5455304 37.0964701,39.5835871 37.3209291,39.5835871 L37.3444641,39.5839626 L37.367248,39.5839626 C37.8384492,39.5839626 38.1708187,39.3349671 38.3027651,38.8831698 C38.3982822,38.5589374 38.4667591,38.2533576 38.5344849,37.9438971 C38.6015847,37.6364396 38.7113731,37.1325648 38.8169051,36.990228 C41.9871226,36.4979956 43.7275875,35.7921953 44.1393252,34.831641 C44.192279,34.708708 44.2226992,34.581018 44.22996,34.4527021 C44.2537454,34.0246902 43.9514206,33.6480046 43.5289169,33.5785263 C38.0282316,32.6719272 35.5539247,27.0277784 35.4511467,26.7884222 C35.445263,26.7746518 35.4390037,26.7608813 35.4322436,26.7476115 C35.1385566,26.1521004 35.0735849,25.6537338 35.2378293,25.2662822 C35.5551765,24.5182942 36.724792,24.1469917 37.498944,23.9016266 C37.7155162,23.8328993 37.9190691,23.7680528 38.0864432,23.7020796 C39.4577337,23.1605238 40.1456324,22.495409 40.1311107,21.725263 C40.1192181,21.1203629 39.6481421,20.5806848 38.8992777,20.3131617 L38.8970244,20.3124106 C38.6451496,20.2078801 38.3462047,20.1507951 38.053394,20.1507951 C37.8532211,20.1507951 37.5562793,20.1780857 37.2788665,20.3077787 C36.6266459,20.6134836 36.0403986,20.7796058 35.5350215,20.8022645 C35.1998979,20.7866163 34.9805715,20.7021155 34.8555104,20.6332631 C34.8714091,20.3544732 34.8891855,20.0675463 34.9080886,19.7677251 L34.9150991,19.6511767 C35.0886073,16.9023363 35.3039277,13.48087 34.4055909,11.4667478 C31.7359934,5.48121607 26.0678089,5.01564829 24.3941934,5.01564829 Z" id="Fill-5"></path>
        </g>
    </g>
</svg>