<?xml version="1.0" encoding="UTF-8"?>
<svg width="48px" height="48px" viewBox="0 0 48 48" version="1.1" xmlns="http://www.w3.org/2000/svg" xmlns:xlink="http://www.w3.org/1999/xlink">
    <!-- Generator: Sketch 45.2 (43514) - http://www.bohemiancoding.com/sketch -->
    <title>Tumblr</title>
    <desc>Created with Sketch.</desc>
    <defs></defs>
    <g id="Page-1" stroke="none" stroke-width="1" fill="none" fill-rule="evenodd">
        <g id="Tumblr" fill-rule="nonzero" fill="#000000">
            <path d="M34.2316563,39.8335159 C33.0119695,41.1361261 30.1854373,42.0202755 27.6543537,42.0620117 L27.3764782,42.0620117 C18.8732676,42.0620117 17.0264388,35.8103616 17.0264388,32.1611861 L17.0264388,22.0231228 L13.676556,22.0231228 C13.490274,22.0231228 13.3116217,21.9491226 13.1799004,21.8174013 C13.0481792,21.6856801 12.9741789,21.5070277 12.9741789,21.3207458 L12.9741789,16.5331592 C12.9745108,16.0281817 13.2927998,15.5781338 13.7688151,15.4095756 C18.1340967,13.8719245 19.5031554,10.0623938 19.7057958,7.16666731 C19.7607119,6.3928993 20.1654437,6.01782227 20.8370677,6.01782227 L25.8300405,6.01782227 C26.2179526,6.01782227 26.5324176,6.33228719 26.5324176,6.72019933 L26.5324176,14.8285631 L32.3771393,14.8285631 C32.7644095,14.8282584 33.0788544,15.1414751 33.0800655,15.5287435 L33.0800655,21.2823045 C33.0799199,21.4685865 33.00578,21.647181 32.8739558,21.7787993 C32.7421315,21.9104176 32.5634213,21.9842781 32.3771393,21.9841324 L26.5055087,21.9841324 L26.5055087,31.35996 C26.5055087,33.7142137 28.0568888,34.3638713 29.0151749,34.3638713 C29.9344706,34.3419048 30.8394882,34.0618327 31.2930952,33.8795112 C31.629731,33.7444175 31.9257288,33.6549043 32.1904245,33.7213528 C32.4369978,33.7828588 32.5990004,33.9574921 32.7082834,34.2760055 L34.2574669,38.801093 C34.3832248,39.1635394 34.4914095,39.5561896 34.2316563,39.8335159 Z" id="Shape"></path>
        </g>
    </g>
</svg>