<?xml version="1.0" encoding="UTF-8"?>
<svg width="48px" height="48px" viewBox="0 0 48 48" version="1.1" xmlns="http://www.w3.org/2000/svg" xmlns:xlink="http://www.w3.org/1999/xlink">
    <!-- Generator: Sketch 45.2 (43514) - http://www.bohemiancoding.com/sketch -->
    <title>Twitch</title>
    <desc>Created with Sketch.</desc>
    <defs></defs>
    <g id="Page-1" stroke="none" stroke-width="1" fill="none" fill-rule="evenodd">
        <g id="Twitch" fill="#000000">
            <path d="M8.53142371,6 L42.0024706,6 L42.0024706,29.0640827 L32.158045,38.9085083 L24.8450432,38.9085083 L20.0634651,43.6900864 L15.0006176,43.6900864 L15.0006176,38.9085083 L6,38.9085083 L6,12.4691939 L8.53142371,6 Z M38.627239,27.3764669 L38.627239,9.37523162 L11.625386,9.37523162 L11.625386,33.0018529 L19.2196572,33.0018529 L19.2196572,37.7834311 L24.0012353,33.0018529 L33.0018529,33.0018529 L38.627239,27.3764669 Z M20.6260037,25.6784441 L20.6260037,15.8444256 L24.0012353,15.8444256 L24.0012353,25.6784441 L20.6260037,25.6784441 Z M29.6266213,25.6784441 L29.6266213,15.8444256 L33.0018529,15.8444256 L33.0018529,25.6784441 L29.6266213,25.6784441 Z" id="Combined-Shape"></path>
        </g>
    </g>
</svg>