<?xml version="1.0" encoding="UTF-8"?>
<svg width="48px" height="48px" viewBox="0 0 48 48" version="1.1" xmlns="http://www.w3.org/2000/svg" xmlns:xlink="http://www.w3.org/1999/xlink">
    <!-- Generator: Sketch 45.2 (43514) - http://www.bohemiancoding.com/sketch -->
    <title>Twitter</title>
    <desc>Created with Sketch.</desc>
    <defs></defs>
    <g id="Page-1" stroke="none" stroke-width="1" fill="none" fill-rule="evenodd">
        <g id="Twitter" fill="#000000">
            <path d="M16.1904671,41.0868794 C32.0184236,41.0868794 40.6739389,27.9739214 40.6739389,16.6034076 C40.6739389,16.2307936 40.6663893,15.8598574 40.6492769,15.4909343 C42.3293112,14.2764578 43.7899042,12.7610044 44.9421387,11.0355048 C43.4001779,11.7203361 41.7409469,12.1820351 40.0003481,12.3900681 C41.7770171,11.3250733 43.1409755,9.6393349 43.7842001,7.63013869 C42.1212782,8.61577895 40.2803538,9.33265398 38.3203138,9.71868943 C36.7501679,8.04620471 34.5138131,7 32.0392269,7 C27.2866793,7 23.4328678,10.8538115 23.4328678,15.6045136 C23.4328678,16.2799498 23.5085314,16.9364282 23.656,17.5665669 C16.5045298,17.2070389 10.1628784,13.7827149 5.91917285,8.5760178 C5.17948129,9.84736791 4.75385247,11.3250733 4.75385247,12.9009234 C4.75385247,15.8865326 6.27299673,18.5220088 8.58300196,20.0638018 C7.17173288,20.0203498 5.84552246,19.6324689 4.68573844,18.987231 C4.68372521,19.0231335 4.68372521,19.0592037 4.68372521,19.0969516 C4.68372521,23.2649936 7.65037657,26.7441779 11.5874012,27.5331934 C10.8648221,27.7298182 10.1041594,27.8358479 9.31900261,27.8358479 C8.76469531,27.8358479 8.22548717,27.7809876 7.70137821,27.680662 C8.79690687,31.0994496 11.9734367,33.5872895 15.7401763,33.6574167 C12.794496,35.9654087 9.08446217,37.3407753 5.05281604,37.3407753 C4.35842199,37.3407753 3.67359075,37.301182 3,37.2216597 C6.80851396,39.6621888 11.330212,41.0868794 16.1904671,41.0868794" id="bird"></path>
        </g>
    </g>
</svg>