<?xml version="1.0" encoding="UTF-8"?>
<svg width="48px" height="48px" viewBox="0 0 48 48" version="1.1" xmlns="http://www.w3.org/2000/svg" xmlns:xlink="http://www.w3.org/1999/xlink">
    <!-- Generator: Sketch 46 (44423) - http://www.bohemiancoding.com/sketch -->
    <title>Vimeo</title>
    <desc>Created with Sketch.</desc>
    <defs></defs>
    <g id="Page-1" stroke="none" stroke-width="1" fill="none" fill-rule="evenodd">
        <g id="Vimeo" fill="#161D1B">
            <path d="M42.7652488,15.3140877 C42.5893309,19.1696552 39.9015422,24.4491696 34.7030686,31.1498637 C29.3282817,38.1494206 24.7809021,41.6488037 21.0609298,41.6488037 C18.7573933,41.6488037 16.8064832,39.5180225 15.2141295,35.2548789 C14.1499248,31.347129 13.0869062,27.4397744 12.0230969,23.5320244 C10.8399006,19.2712527 9.57131488,17.1380996 8.21496789,17.1380996 C7.91926764,17.1380996 6.88431678,17.7615211 5.11248723,19.0036203 L3.25250106,16.6028347 C5.2034111,14.8851642 7.12822995,13.1678889 9.02181843,11.4482418 C11.6238225,9.19530635 13.5771044,8.01052876 14.8788971,7.89074644 C17.9556819,7.59465087 19.8492704,9.70171279 20.5600579,14.2123275 C21.3281669,19.0787313 21.8594786,22.1057056 22.1583414,23.2904832 C23.0450468,27.3278985 24.0206995,29.3440365 25.0868807,29.3440365 C25.914288,29.3440365 27.1571778,28.0347327 28.8143642,25.4161252 C30.4699693,22.796727 31.3566747,20.8039129 31.4764571,19.4349157 C31.7120685,17.1744691 30.8249677,16.0414786 28.8143642,16.0414786 C27.8679653,16.0414786 26.8923126,16.2596959 25.8885921,16.6909913 C27.8312004,10.3148559 31.5432663,7.21830511 37.022418,7.39501368 C41.0843431,7.51440067 42.999279,10.1539602 42.7652488,15.3140877" id="v"></path>
        </g>
    </g>
</svg>