<?xml version="1.0" encoding="UTF-8"?>
<svg width="48px" height="48px" viewBox="0 0 48 48" version="1.1" xmlns="http://www.w3.org/2000/svg" xmlns:xlink="http://www.w3.org/1999/xlink">
    <!-- Generator: Sketch 45.2 (43514) - http://www.bohemiancoding.com/sketch -->
    <title>Vimeo</title>
    <desc>Created with Sketch.</desc>
    <defs></defs>
    <g id="Page-1" stroke="none" stroke-width="1" fill="none" fill-rule="evenodd">
        <g id="Vimeo" fill="#161D1B">
            <path d="M42.7652488,15.7482918 C42.5893309,19.6038593 39.9015422,24.8833737 34.7030686,31.5840678 C29.3282817,38.5836247 24.7809021,42.0830078 21.0609298,42.0830078 C18.7573933,42.0830078 16.8064832,39.9522266 15.2141295,35.689083 C14.1499248,31.7813331 13.0869062,27.8739785 12.0230969,23.9662285 C10.8399006,19.7054568 9.57131488,17.5723037 8.21496789,17.5723037 C7.91926764,17.5723037 6.88431678,18.1957252 5.11248723,19.4378244 L3.25250106,17.0370388 C5.2034111,15.3193683 7.12822995,13.602093 9.02181843,11.8824459 C11.6238225,9.62951045 13.5771044,8.44473286 14.8788971,8.32495054 C17.9556819,8.02885498 19.8492704,10.1359169 20.5600579,14.6465316 C21.3281669,19.5129354 21.8594786,22.5399097 22.1583414,23.7246873 C23.0450468,27.7621026 24.0206995,29.7782406 25.0868807,29.7782406 C25.914288,29.7782406 27.1571778,28.4689368 28.8143642,25.8503293 C30.4699693,23.2309311 31.3566747,21.2381171 31.4764571,19.8691198 C31.7120685,17.6086733 30.8249677,16.4756827 28.8143642,16.4756827 C27.8679653,16.4756827 26.8923126,16.6939 25.8885921,17.1251954 C27.8312004,10.74906 31.5432663,7.65250921 37.022418,7.82921778 C41.0843431,7.94860477 42.999279,10.5881643 42.7652488,15.7482918" id="v"></path>
        </g>
    </g>
</svg>