<?xml version="1.0" encoding="UTF-8"?>
<svg width="48px" height="48px" viewBox="0 0 48 48" version="1.1" xmlns="http://www.w3.org/2000/svg" xmlns:xlink="http://www.w3.org/1999/xlink">
    <!-- Generator: Sketch 45.2 (43514) - http://www.bohemiancoding.com/sketch -->
    <title>WeChat</title>
    <desc>Created with Sketch.</desc>
    <defs></defs>
    <g id="Page-1" stroke="none" stroke-width="1" fill="none" fill-rule="evenodd">
        <g id="WeChat" fill="#000000">
            <path d="M37.4151824,39.4665454 C37.2005295,39.3422407 36.9442396,39.3138932 36.7068481,39.3856463 C35.3609724,39.7924661 33.9088313,40.0142943 32.3946391,40.0142943 C25.4039175,40.0142943 19.7367879,35.286069 19.7367879,29.4534524 C19.7367879,23.6208864 25.4039175,18.8926105 32.3946391,18.8926105 C39.3853606,18.8926105 45.0524902,23.6208864 45.0524902,29.4534524 C45.0524902,32.6751156 43.3234935,35.5597918 40.597533,37.4968726 C40.3788377,37.6523039 40.2795455,37.9270879 40.3475594,38.1866118 L40.9434132,40.4596688 C41.1218358,41.1402115 40.7696393,41.4085781 40.1607992,41.056129 L37.4151824,39.4665454 Z M36.5633924,27.7859511 C37.5122512,27.7859511 38.2814241,27.0167782 38.2814241,26.0679194 C38.2814241,25.1191111 37.5122512,24.3498877 36.5633924,24.3498877 C35.6145336,24.3498877 34.8453607,25.1191111 34.8453607,26.0679194 C34.8453607,27.0167782 35.6145336,27.7859511 36.5633924,27.7859511 Z M28.1753553,27.7859511 C29.1242141,27.7859511 29.893387,27.0167782 29.893387,26.0679194 C29.893387,25.1191111 29.1242141,24.3498877 28.1753553,24.3498877 C27.2264965,24.3498877 26.4573236,25.1191111 26.4573236,26.0679194 C26.4573236,27.0167782 27.2264965,27.7859511 28.1753553,27.7859511 Z M13.1957864,31.7989194 C12.8701689,31.7019011 12.518983,31.7453067 12.2256038,31.9166046 L8.96877156,33.8181625 C8.24896681,34.2384739 7.83658867,33.9235688 8.05235324,33.1184688 L8.76725655,30.4509214 C8.86457799,30.0877598 8.72450788,29.7038303 8.41864771,29.4852865 C5.17010242,27.1638215 3.11230469,23.720886 3.11230469,19.8779522 C3.11230469,12.8872307 9.92187491,7.22010105 18.3219382,7.22010105 C25.9137687,7.22010105 32.2064641,11.8491859 33.3470855,17.9007504 C33.0820539,17.8883199 32.8150515,17.8820036 32.5462301,17.8820036 C24.8578361,17.8820036 18.6251203,23.0400906 18.6251203,29.4029221 C18.6251203,30.4823513 18.804503,31.5270662 19.1398729,32.5178146 C18.8690303,32.5297903 18.5963685,32.5358034 18.3219382,32.5358034 C16.5232096,32.5358034 14.7973962,32.2759764 13.1957864,31.7989194 Z M23.3749726,17.8314733 C24.4912385,17.8314733 25.3961864,16.9265759 25.3961864,15.8102595 C25.3961864,14.6939937 24.4912385,13.7890458 23.3749726,13.7890458 C22.2586563,13.7890458 21.3537589,14.6939937 21.3537589,15.8102595 C21.3537589,16.9265759 22.2586563,17.8314733 23.3749726,17.8314733 Z M13.2183735,17.8314733 C14.3346393,17.8314733 15.2395873,16.9265759 15.2395873,15.8102595 C15.2395873,14.6939937 14.3346393,13.7890458 13.2183735,13.7890458 C12.1021077,13.7890458 11.1971597,14.6939937 11.1971597,15.8102595 C11.1971597,16.9265759 12.1021077,17.8314733 13.2183735,17.8314733 Z" id="Combined-Shape"></path>
        </g>
    </g>
</svg>