<?xml version="1.0" encoding="UTF-8"?>
<svg width="48px" height="48px" viewBox="0 0 48 48" version="1.1" xmlns="http://www.w3.org/2000/svg" xmlns:xlink="http://www.w3.org/1999/xlink">
    <!-- Generator: Sketch 45.2 (43514) - http://www.bohemiancoding.com/sketch -->
    <title>Weibo</title>
    <desc>Created with Sketch.</desc>
    <defs></defs>
    <g id="Page-1" stroke="none" stroke-width="1" fill="none" fill-rule="evenodd">
        <g id="Weibo" fill="#0A0B09">
            <path d="M35.0697569,23.3285716 C37.5942785,24.1118298 40.4036212,26.0046494 40.4036212,29.3401927 C40.4036212,34.8608892 32.4420204,41.8148372 20.4739787,41.8148372 C11.3436965,41.8148372 2.01123047,37.3906368 2.01123047,30.1129987 C2.01123047,26.3080885 4.42175823,21.9080587 8.57256945,17.7565942 C14.1164567,12.21532 20.58046,9.69079849 23.0109122,12.1232104 C24.0835644,13.1948828 24.187106,15.0501399 23.4979172,17.2656697 C23.1382978,18.3820903 24.5450922,17.7641067 24.5450922,17.7663931 C29.0257995,15.8905583 32.9345781,15.7808107 34.3629301,17.8212669 C35.1249574,18.9092707 35.0521189,20.4346318 34.3495383,22.2030054 C34.0248683,23.0163136 34.4501403,23.1433725 35.0697569,23.3285716 Z M20.4981493,39.2066984 C27.7839531,38.4864797 33.3059561,34.024717 32.8339761,29.240244 C32.3610162,24.4590373 26.0720864,21.1653026 18.7862826,21.8865011 C11.5021119,22.6063932 5.9778225,27.0668494 6.45078241,31.8493626 C6.92439559,36.6328557 13.2133253,39.9249573 20.4981493,39.2066984 Z M21.2473649,25.7454826 C24.8347397,26.672458 26.6658263,30.0573223 25.1995852,33.3448511 C23.7121132,36.707178 19.4362028,38.5000489 15.8076726,37.3303876 C12.3055481,36.1995953 10.8226489,32.7412392 12.3561757,29.6258444 C13.861939,26.5708761 17.7805164,24.8430046 21.2473649,25.7454826 Z M18.5997039,33.7018574 C19.292159,32.565839 18.9273136,31.2687922 17.7863958,30.7824405 C16.6578899,30.3091539 15.1998145,30.7961589 14.5037665,31.887429 C13.7988994,32.9835985 14.1291221,34.2901176 15.2491356,34.7996601 C16.3861339,35.3183482 17.8951635,34.8257905 18.5997039,33.7018574 Z M20.9210617,30.7220139 C21.1644009,30.2836768 21.0066387,29.7904658 20.5666684,29.6291107 C20.133884,29.4579567 19.5923318,29.6656932 19.3382138,30.0916185 C19.0916084,30.5201567 19.2274863,31.0074884 19.6619039,31.1858282 C20.1028541,31.3674344 20.6662905,31.1583913 20.9210617,30.7220139 Z M38.5535251,14.3113444 L38.5535251,14.3110178 C39.9635859,15.8716549 40.34019,17.996055 39.7375581,19.8624175 C39.4916058,20.6247714 38.6743781,21.0408978 37.911371,20.7969053 C37.1490171,20.5493199 36.7322375,19.7311124 36.9778631,18.970065 L36.9768832,18.970065 C37.2731364,18.057788 37.0876107,17.0177988 36.3994017,16.2541384 C35.7108661,15.493091 34.6947209,15.2043503 33.7576201,15.4029412 L33.7576201,15.401308 C32.975995,15.5718088 32.2054754,15.0694522 32.0375877,14.288807 C31.8693733,13.5042423 32.3687903,12.7327427 33.1527017,12.5658349 C35.0703452,12.1582009 37.1470573,12.7513606 38.5535251,14.3113444 Z M43.0173127,10.0108957 C45.9092928,13.2118675 46.6883048,17.5756413 45.4542975,21.4050489 C45.4539709,21.4070086 45.4539709,21.4102749 45.4539709,21.4115815 C45.1671899,22.2954416 44.2173505,22.7801602 43.3328371,22.4937059 C42.4450573,22.2072516 41.9603388,21.2590453 42.2471197,20.3719189 L42.2467931,20.370939 C43.1257538,17.6497863 42.5685234,14.5448436 40.5159819,12.269214 C38.460174,9.9935843 35.4310095,9.12344257 32.6314657,9.71758213 C31.7211485,9.91258011 30.8255296,9.33085248 30.6321648,8.42151517 C30.4365135,7.5125045 31.0175879,6.61623239 31.9272519,6.4222143 L31.9285584,6.4222143 C35.8641206,5.58571544 40.1276191,6.80665755 43.0173127,10.0108957 Z" id="Fill-82"></path>
        </g>
    </g>
</svg>