<?xml version="1.0" encoding="UTF-8"?>
<svg width="48px" height="48px" viewBox="0 0 48 48" version="1.1" xmlns="http://www.w3.org/2000/svg" xmlns:xlink="http://www.w3.org/1999/xlink">
    <!-- Generator: Sketch 45.2 (43514) - http://www.bohemiancoding.com/sketch -->
    <title>Whatsapp</title>
    <desc>Created with Sketch.</desc>
    <defs></defs>
    <g id="Page-1" stroke="none" stroke-width="1" fill="none" fill-rule="evenodd">
        <g id="Whatsapp" fill="#000000">
            <path d="M44.0006104,23.5013527 C44.0006104,34.2630144 35.2096754,42.9868362 24.3635667,42.9868362 C20.9203505,42.9868362 17.6855851,42.1068093 14.871277,40.5623177 L3.99938965,44.0170898 L7.54394226,33.5625486 C5.7558877,30.626459 4.72607849,27.1827983 4.72607849,23.5013527 C4.72607849,12.7396909 13.5179023,4.01586914 24.3635667,4.01586914 C35.2105643,4.01586914 44.0006104,12.7396909 44.0006104,23.5013527 Z M24.3635667,7.11907495 C15.2592888,7.11907495 7.85372949,14.4681881 7.85372949,23.5013527 C7.85372949,27.0859065 9.02220959,30.4055634 10.9987144,33.1060902 L8.93598474,39.1902759 L15.2806228,37.1737699 C17.887369,38.8853777 21.010131,39.8836304 24.3640111,39.8836304 C33.4669556,39.8836304 40.8738483,32.5354061 40.8738483,23.5022416 C40.8738483,14.469077 33.4674,7.11907495 24.3635667,7.11907495 Z" id="bubble"></path>
            <path d="M34.2798693,27.9890452 C34.1585322,27.7903724 33.838078,27.6703688 33.3571744,27.4316948 C32.875382,27.1930209 30.5081986,26.0369856 30.0681852,25.8783141 C29.6268384,25.7191981 29.3050508,25.6391957 28.9845966,26.116988 C28.6641423,26.5952249 27.7414475,27.6703688 27.4601056,27.9890452 C27.1792081,28.3086105 26.8987551,28.3486117 26.4169626,28.1094933 C25.9360591,27.8708193 24.3853451,27.365915 22.5466223,25.7391987 C21.115912,24.4733823 20.1496603,22.910668 19.8687628,22.4319867 C19.5883098,21.9541943 19.8394286,21.6959642 20.0798804,21.4581792 C20.2967759,21.2439504 20.5616729,20.9003844 20.8021246,20.6217092 C21.0434653,20.3425896 21.1234678,20.1439169 21.2830282,19.824796 C21.4443665,19.5061196 21.3639196,19.2274445 21.243027,18.9878816 C21.1230233,18.7492076 20.1594384,16.3989137 19.7585372,15.4424401 C19.3576361,14.4868553 18.9571794,14.6459713 18.6758375,14.6459713 C18.3953845,14.6459713 18.0740414,14.6059701 17.7531427,14.6059701 C17.432244,14.6059701 16.9104503,14.7255293 16.4691035,15.2033217 C16.0282012,15.6815585 14.7850521,16.8371493 14.7850521,19.1869988 C14.7850521,21.5372927 16.5091047,23.8080287 16.7504454,24.1262606 C16.9908972,24.4444926 20.0794359,29.4242001 24.9729186,31.3367029 C29.8668457,33.2483168 29.8668457,32.6105195 30.7495393,32.5305171 C31.631344,32.4509591 33.5967373,31.3753707 33.9994163,30.26067 C34.3994285,29.1441915 34.3994285,28.1881624 34.2798693,27.9890452 Z" id="phone"></path>
        </g>
    </g>
</svg>