<?xml version="1.0" encoding="UTF-8"?>
<svg width="48px" height="48px" viewBox="0 0 48 48" version="1.1" xmlns="http://www.w3.org/2000/svg" xmlns:xlink="http://www.w3.org/1999/xlink">
    <!-- Generator: Sketch 45.2 (43514) - http://www.bohemiancoding.com/sketch -->
    <title>YouTube</title>
    <desc>Created with Sketch.</desc>
    <defs></defs>
    <g id="Page-1" stroke="none" stroke-width="1" fill="none" fill-rule="evenodd">
        <g id="YouTube" fill="#000000">
            <path d="M44.5884589,15.7170331 C44.5884589,15.7170331 45.0070801,19.1095065 45.0070801,22.501939 L45.0070801,25.682352 C45.0070801,29.0747434 44.5884589,32.4671758 44.5884589,32.4671758 C44.5884589,32.4671758 44.1788667,35.3560726 42.921854,36.6282296 C41.327728,38.2979536 39.5408721,38.3062029 38.7214416,38.4039633 C32.855122,38.828002 24.0462646,38.8412583 24.0462646,38.8412583 C24.0462646,38.8412583 13.1468458,38.7417332 9.79307432,38.4201336 C8.86008256,38.2451335 6.76533486,38.2979536 5.1706343,36.6282296 C3.91370359,35.3560726 3.50468605,32.4671758 3.50468605,32.4671758 C3.50468605,32.4671758 3.08544922,29.0747434 3.08544922,25.682352 L3.08544922,22.501939 C3.08544922,19.1095065 3.50468605,15.7170331 3.50468605,15.7170331 C3.50468605,15.7170331 3.91370359,12.8281774 5.1706343,11.5560204 C6.76533486,9.88633734 8.5515341,9.878047 9.37100564,9.78032768 C15.2375304,9.35624798 24.0371124,9.35624798 24.0371124,9.35624798 L24.0553348,9.35624798 C24.0553348,9.35624798 32.855122,9.35624798 38.7214416,9.78032768 C39.5408721,9.878047 41.327728,9.88633734 42.921854,11.5560204 C44.1788667,12.8281774 44.5884589,15.7170331 44.5884589,15.7170331 Z M19.3889324,29.7653343 L30.7144009,23.8964291 L19.3870035,17.9864826 L19.3889324,29.7653343 Z" id="Combined-Shape"></path>
        </g>
    </g>
</svg>