<svg xmlns="http://www.w3.org/2000/svg" width="48" height="48" viewBox="0 0 48 48">
  <path d="M24 12a4 4 0 1 1 0-8 4 4 0 0 1 0 8zm14 14c-3.51-.01-7.42-1.77-10-3.9V29h6c2.21 0 4 1.79 4 4v11h-4V34H24c-2.21 0-4-1.79-4-4V18.18c0-2.09 1.53-3.96 3.61-4.16.87-.09 1.69.11 2.38.51h.02c.01.01.02.02.04.03.45.23.87.53 1.22.91l2.59 2.86C31.82 20.5 34.93 22.04 38 22v4zM25.65 36h4.15c-.93 4.56-4.96 8-9.8 8-5.52 0-10-4.48-10-10 0-4.84 3.44-8.87 8-9.8v4.15c-2.33.82-4 3.04-4 5.65 0 3.31 2.69 6 6 6a5.99 5.99 0 0 0 5.65-4z"/>
</svg>
