<svg xmlns="http://www.w3.org/2000/svg" width="48" height="48" viewBox="0 0 48 48">
  <path d="M12 36.002c0 1.1.9 2 2 2h2v7c0 1.66 1.34 3 3 3s3-1.34 3-3v-7h4v7c0 1.66 1.34 3 3 3s3-1.34 3-3v-7h2c1.1 0 2-.9 2-2v-20H12v20zm-5-20c-1.66 0-3 1.34-3 3v14c0 1.66 1.34 3 3 3s3-1.34 3-3v-14c0-1.66-1.34-3-3-3zm34 0c-1.66 0-3 1.34-3 3v14c0 1.66 1.34 3 3 3s3-1.34 3-3v-14c0-1.66-1.34-3-3-3zm-9.94-11.68c2.99 2.18 4.94 5.7 4.94 9.68H12c0-3.97 1.94-7.49 4.91-9.68l-2.62-2.62A.996.996 0 1 1 15.7.292l2.97 2.97c1.61-.8 3.41-1.26 5.33-1.26 1.91 0 3.7.46 5.3 1.25l2.96-2.95a.996.996 0 1 1 1.41 1.41l-2.61 2.61zM20 10.002v-2h-2v2h2zm10 0v-2h-2v2h2z"/>
</svg>
