<svg xmlns="http://www.w3.org/2000/svg" width="48" height="48" viewBox="0 0 48 48">
  <path d="M24 4c11.05 0 20 8.95 20 20s-8.95 20-20 20S4 35.05 4 24 12.95 4 24 4zm0 36c8.82 0 16-7.18 16-16S32.82 8 24 8 8 15.18 8 24s7.18 16 16 16zm-3.84-18.27c.11-.65.31-1.23.6-1.74s.69-.92 1.18-1.23c.47-.29 1.06-.45 1.79-.46.48.01.92.09 1.3.26.41.18.75.42 1.04.72.29.3.51.66.67 1.06.16.4.25.83.27 1.28h3.58c-.03-.94-.22-1.8-.55-2.58-.33-.78-.81-1.45-1.41-2.02-.6-.57-1.32-1-2.16-1.31-.84-.31-1.77-.47-2.79-.47-1.3 0-2.43.22-3.39.67-.96.45-1.76 1.06-2.4 1.84-.64.78-1.12 1.68-1.43 2.71-.31 1.03-.46 2.12-.46 3.27v.55c0 1.16.16 2.25.47 3.28.31 1.03.79 1.93 1.43 2.7a6.8 6.8 0 0 0 2.41 1.83c.97.45 2.1.67 3.4.67.94 0 1.82-.15 2.64-.46.82-.31 1.54-.73 2.16-1.27.62-.54 1.12-1.16 1.48-1.88.36-.72.57-1.48.6-2.3h-3.58a2.848 2.848 0 0 1-1.02 2.07c-.3.25-.65.45-1.05.59-.38.13-.78.2-1.21.2-.72-.02-1.31-.17-1.79-.47-.5-.32-.9-.73-1.19-1.24-.29-.51-.49-1.09-.6-1.75-.11-.66-.15-1.3-.15-1.97v-.55c0-.68.05-1.35.16-2z"/>
</svg>
