<svg xmlns="http://www.w3.org/2000/svg" width="48" height="48" viewBox="0 0 48 48">
  <path d="M37.98 23c.68 0 1.36.06 2.02.15V0L0 40h23.13c-.09-.66-.15-1.32-.15-2 0-8.28 6.72-15 15-15zm7.43 15.98l2.1 1.65c.19.15.25.42.12.64l-2 3.46c-.12.22-.38.31-.61.22l-2.49-1c-.52.39-1.08.73-1.69.98l-.37 2.65c-.04.24-.24.42-.49.42h-4c-.24 0-.45-.18-.49-.42l-.37-2.65c-.61-.25-1.17-.58-1.69-.98l-2.49 1c-.22.08-.48 0-.61-.22l-2-3.46a.505.505 0 0 1 .12-.64l2.11-1.65a7.93 7.93 0 0 1-.07-.98c0-.33.03-.66.07-.98l-2.11-1.65a.493.493 0 0 1-.12-.64l2-3.46c.12-.22.38-.31.61-.22l2.49 1c.52-.39 1.08-.73 1.69-.98l.37-2.65c.03-.24.24-.42.49-.42h4c.25 0 .46.18.5.42l.37 2.65c.61.25 1.17.58 1.69.98l2.49-1c.22-.08.49 0 .61.22l2 3.46c.12.22.07.49-.12.64l-2.11 1.65c.04.32.07.65.07.98 0 .34-.03.66-.07.98zM37.98 41c1.66 0 3-1.34 3-3s-1.34-3-3-3-3 1.34-3 3 1.34 3 3 3z"/>
</svg>
