<svg xmlns="http://www.w3.org/2000/svg" width="48" height="48" viewBox="0 0 48 48">
  <path d="M46.46 43.92l-2.54 2.54-5.68-5.68c-.73 1.01-1.91 1.68-3.24 1.68-2.2 0-3.98-1.8-3.98-4 0-1.33.66-2.51 1.66-3.24l-2.76-2.76H15c-2.2 0-4-1.8-4-4 0-.7.18-1.36.5-1.92l2.7-4.9-4.42-9.32L1 3.54 3.54 1 5 2.46 6.54 4l39.92 39.92zM15.84 28.46h10.08l-4-4H17.2l-1.8 3.26-.06.24c0 .28.22.5.5.5zm16.26-4c1.5 0 2.82-.82 3.5-2.06l7.16-12.98c.16-.28.24-.62.24-.96 0-1.1-.9-2-2-2H14.08l18 18h.02zm-17.1 10c-2.2 0-3.98 1.8-3.98 4s1.78 4 3.98 4 4-1.8 4-4-1.8-4-4-4z"/>
</svg>
