<svg xmlns="http://www.w3.org/2000/svg" width="48" height="48" viewBox="0 0 48 48">
  <path d="M39.314 25.95l4.22 3.31c.38.31.49.85.24 1.28l-4 6.93a1 1 0 0 1-1.22.43l-4.98-2.01a14.8 14.8 0 0 1-3.38 1.97l-.75 5.3c-.08.47-.49.84-.99.84h-8c-.5 0-.91-.37-.99-.84l-.75-5.3c-1.22-.51-2.35-1.18-3.38-1.97l-4.98 2.01a.99.99 0 0 1-1.22-.43l-4-6.93a.997.997 0 0 1 .24-1.28l4.22-3.31a15.7 15.7 0 0 1-.14-1.95c0-.66.06-1.31.14-1.95l-4.22-3.31c-.38-.31-.49-.85-.24-1.28l4-6.93c.25-.43.77-.6 1.22-.43l4.98 2.01a14.8 14.8 0 0 1 3.38-1.97l.75-5.3c.08-.47.49-.84.99-.84h8c.5 0 .91.37 1 .84l.75 5.3c1.22.51 2.35 1.18 3.38 1.97l4.98-2.01c.45-.18.97 0 1.22.43l4 6.93c.25.44.14.98-.24 1.28l-4.23 3.31c.08.64.14 1.29.14 1.95 0 .66-.06 1.31-.14 1.95zM24.454 31c3.87 0 7-3.13 7-7s-3.13-7-7-7-7 3.13-7 7 3.13 7 7 7z"/>
</svg>
