<svg xmlns="http://www.w3.org/2000/svg" width="48" height="48" viewBox="0 0 48 48">
  <path d="M40 42c-2.78 0-5.56-.94-8-2.65-4.88 3.42-11.12 3.42-16 0C13.56 41.06 10.78 42 8 42H4v4h4c2.75 0 5.48-.69 8-1.99a17.445 17.445 0 0 0 16 0C34.52 45.3 37.25 46 40 46h4v-4h-4zM7.89 38L4.11 24.62c-.17-.51-.13-1.07.12-1.55s.68-.83 1.2-.99L8 21.24V12c0-2.21 1.79-4 4-4h6V2h12v6h6c2.21 0 4 1.79 4 4v9.24l2.58.85c.52.15.95.51 1.2.99.24.48.29 1.04.12 1.55L40.11 38H40c-3.21 0-6.04-1.76-8-4-1.95 2.24-4.8 4-8 4s-6.05-1.76-8-4c-1.95 2.24-4.8 4-8 4h-.11zM12 12v7.93L24 16l12 3.93V12H12z"/>
</svg>
