<svg xmlns="http://www.w3.org/2000/svg" width="48" height="48" viewBox="0 0 48 48">
  <path d="M24 45c9.94 0 18-8.06 18-18-9.94 0-18 8.06-18 18zM11.21 21.5c0-1.99 1.17-3.7 2.86-4.5a4.976 4.976 0 0 1-2.86-4.5c0-2.76 2.24-5 5-5 1.05 0 2.02.32 2.83.88L19 8c0-2.76 2.24-5 5-5s5 2.24 5 5l-.04.38c.8-.55 1.78-.88 2.83-.88 2.76 0 5 2.24 5 5 0 1.99-1.18 3.7-2.86 4.5 1.69.8 2.86 2.51 2.86 4.5 0 2.76-2.24 5-5 5-1.05 0-2.02-.32-2.83-.88L29 26c0 2.76-2.24 5-5 5s-5-2.24-5-5l.04-.38c-.8.55-1.78.88-2.83.88-2.76 0-5-2.24-5-5zM24 12c-2.76 0-5 2.24-5 5s2.24 5 5 5 5-2.24 5-5-2.24-5-5-5zM6 27c0 9.94 8.06 18 18 18 0-9.94-8.06-18-18-18z"/>
</svg>
