<svg xmlns="http://www.w3.org/2000/svg" width="48" height="48" viewBox="0 0 48 48">
  <path d="M40 20c0 3.72-2.55 6.83-6 7.72V30h6c0 3.73-2.55 6.83-6 7.72V40a2 2 0 0 1-2 2H16c-1.1 0-2-.9-2-2v-2.28c-3.44-.89-6-4-6-7.72h6v-2.28c-3.44-.89-6-4-6-7.72h6v-2.28c-3.44-.89-6-4-6-7.72h6V8c0-1.1.9-2 2-2h16a2 2 0 0 1 2 2v2h6c0 3.73-2.55 6.83-6 7.72V20h6zM24 38c2.21 0 4-1.79 4-4s-1.79-4-4-4-4 1.79-4 4 1.79 4 4 4zm0-10c2.21 0 4-1.79 4-4s-1.79-4-4-4-4 1.79-4 4 1.79 4 4 4zm0-10c2.21 0 4-1.79 4-4s-1.79-4-4-4-4 1.79-4 4 1.79 4 4 4z"/>
</svg>
