<svg xmlns="http://www.w3.org/2000/svg" width="48" height="48" viewBox="0 0 48 48">
  <path d="M41.29 41.21l.71.7-2.55 2.55-5.4-5.38a15.944 15.944 0 0 1-10.06 3.56c-4.09 0-8.19-1.57-11.31-4.69-5.84-5.85-6.22-15.1-1.12-21.38L6 11.01l2.54-2.55 5.5 5.5 2.83 2.83L24 23.92 36.58 36.5l4.71 4.71zM24 38.63v-9.62l-9.58-9.59A11.924 11.924 0 0 0 12 26.63c0 3.21 1.25 6.22 3.52 8.49 2.26 2.26 5.27 3.51 8.48 3.51zm0-28.97v9.16l14.51 14.51c2.73-5.91 1.68-13.14-3.2-18.02L24 4l-7.41 7.41 2.83 2.83L24 9.66z"/>
</svg>
