<svg xmlns="http://www.w3.org/2000/svg" width="48" height="48" viewBox="0 0 48 48">
  <path d="M37.78 25.18c3.85 2.22 5.99 6.25 6 10.4-3.59 2.06-8.15 2.22-11.99 0-.56-.33-1.07-.7-1.56-1.09.09.62.16 1.24.16 1.89 0 4.44-2.42 8.3-6 10.38-3.58-2.07-6-5.94-6-10.38 0-.65.07-1.27.16-1.91-.49.4-1 .77-1.56 1.09-3.84 2.22-8.4 2.06-11.99 0 .01-4.14 2.15-8.17 5.99-10.39.56-.32 1.14-.58 1.72-.8-.58-.22-1.16-.48-1.72-.8C7.15 21.35 5.01 17.32 5 13.18c3.59-2.06 8.15-2.22 11.99 0 .56.33 1.07.7 1.56 1.09-.1-.62-.16-1.24-.16-1.89 0-4.44 2.42-8.31 6-10.38 3.58 2.07 6 5.94 6 10.38 0 .65-.07 1.27-.17 1.9.49-.4 1-.77 1.56-1.09 3.84-2.22 8.4-2.06 11.99 0-.01 4.14-2.15 8.17-5.99 10.39-.56.32-1.14.58-1.72.8.58.22 1.16.48 1.72.8zm-13.39 7.2c4.42 0 8-3.58 8-8s-3.58-8-8-8-8 3.58-8 8 3.58 8 8 8z"/>
</svg>
