<svg xmlns="http://www.w3.org/2000/svg" width="48" height="48" viewBox="0 0 48 48">
  <path d="M35.545 24.045l7.95 7.96c.78.78.78 2.05 0 2.83l-8.67 8.67c-.39.39-.9.59-1.41.59-.51 0-1.02-.2-1.41-.59l-7.96-7.96-7.96 7.96c-.78.78-2.05.78-2.83 0l-8.67-8.67c-.78-.78-.78-2.05 0-2.83l7.96-7.95-7.96-7.96c-.78-.78-.78-2.05 0-2.83l8.68-8.67c.39-.39.9-.59 1.41-.59.51 0 1.02.2 1.41.59l7.96 7.95 7.96-7.96c.78-.78 2.05-.78 2.83 0l8.67 8.67c.78.78.78 2.05 0 2.83l-7.96 7.96zm-11.46-6.04c-1.1 0-2 .9-2 2s.9 2 2 2 2-.9 2-2-.9-2-2-2zm-9.42 3.92l7.26-7.26-7.25-7.25-7.26 7.26 7.25 7.25zm5.42 4.08c1.1 0 2-.9 2-2s-.9-2-2-2-2 .9-2 2 .9 2 2 2zm4 4c1.1 0 2-.9 2-2s-.9-2-2-2-2 .9-2 2 .9 2 2 2zm4-8c-1.1 0-2 .9-2 2s.9 2 2 2 2-.9 2-2-.9-2-2-2zm5.33 18.67l7.26-7.26-7.25-7.25-7.26 7.26 7.25 7.25z"/>
</svg>
