<svg xmlns="http://www.w3.org/2000/svg" width="48" height="48" viewBox="0 0 48 48">
  <path d="M42.86 8c.66 0 1.14.47 1.12 1.25v29.5c.01.78-.47 1.25-1.13 1.25-.19 0-.4-.04-.62-.12a52.262 52.262 0 0 0-18.24-3.29c-6.18 0-12.36 1.1-18.24 3.29-.22.08-.43.12-.62.12-.66 0-1.12-.47-1.13-1.25V9.25C4 8.47 4.47 8 5.13 8c.2 0 .41.04.63.12A52.262 52.262 0 0 0 24 11.41c6.18 0 12.36-1.1 18.24-3.29.22-.08.43-.12.62-.12zM40 13.09a56.197 56.197 0 0 1-16 2.32c-5.44 0-10.81-.78-16-2.32v21.82c5.2-1.54 10.56-2.32 16-2.32 5.44 0 10.81.78 16 2.32V13.09z"/>
</svg>
