<svg xmlns="http://www.w3.org/2000/svg" width="48" height="48" viewBox="0 0 48 48">
  <path d="M44 42c-2.22 0-3.46-.74-4.36-1.29-.74-.44-1.19-.71-2.3-.71-1.11 0-1.56.27-2.3.71-.9.54-2.14 1.29-4.36 1.29s-3.46-.74-4.36-1.29c-.74-.45-1.19-.71-2.3-.71-1.11 0-1.56.27-2.3.71-.92.55-2.16 1.29-4.38 1.29-2.22 0-3.46-.74-4.36-1.28-.74-.45-1.19-.72-2.31-.72s-1.56.27-2.31.72C7.46 41.26 6.22 42 4 42v-4c1.11 0 1.56-.27 2.31-.72.9-.54 2.14-1.28 4.36-1.28s3.46.74 4.36 1.28c.74.45 1.19.72 2.31.72 1.11 0 1.56-.27 2.3-.71.9-.54 2.14-1.29 4.36-1.29s3.46.74 4.36 1.29c.74.45 1.19.71 2.3.71 1.11 0 1.56-.27 2.3-.71.9-.54 2.14-1.29 4.36-1.29s3.46.74 4.36 1.29c.76.44 1.21.71 2.32.71v4zm0-9c-2.22 0-3.46-.74-4.36-1.29-.74-.44-1.19-.71-2.3-.71-1.11 0-1.56.27-2.3.71-.9.54-2.14 1.29-4.36 1.29s-3.46-.74-4.36-1.29c-.74-.45-1.19-.71-2.3-.71-1.11 0-1.56.27-2.3.71-.92.55-2.16 1.29-4.38 1.29-2.22 0-3.46-.74-4.36-1.28-.74-.45-1.19-.72-2.31-.72s-1.56.27-2.31.72C7.46 32.26 6.22 33 4 33v-4c1.11 0 1.56-.27 2.31-.72.9-.54 2.14-1.28 4.36-1.28s3.46.74 4.36 1.28c.74.45 1.19.72 2.31.72 1.11 0 1.56-.27 2.3-.71.9-.54 2.14-1.29 4.36-1.29s3.46.74 4.36 1.29c.74.45 1.19.71 2.3.71 1.11 0 1.56-.27 2.3-.71.9-.54 2.14-1.29 4.36-1.29s3.46.74 4.36 1.29c.76.44 1.21.71 2.32.71v4zm-26.66-9c-1.11 0-1.56-.27-2.3-.72-.42-.25-.92-.54-1.54-.78L20 16l-2-2c-2.23-2.22-4.36-3.02-8-3V6c5-.02 7.85.89 10.96 4l12.81 12.83c-.3.16-.57.31-.81.46-.74.44-1.19.71-2.3.71-1.11 0-1.56-.26-2.3-.71-.9-.55-2.14-1.29-4.36-1.29s-3.46.75-4.36 1.29c-.74.44-1.19.71-2.3.71zM33 16a5 5 0 1 1 0-10 5 5 0 0 1 0 10z"/>
</svg>
