<svg xmlns="http://www.w3.org/2000/svg" width="48" height="48" viewBox="0 0 48 48">
  <path d="M24 43.955c-11.036 0-20.014-8.966-20.014-19.987C3.986 12.947 12.964 3.981 24 3.981s20.014 8.966 20.014 19.987c0 11.021-8.978 19.987-20.014 19.987zm13.233-30.757c-.36.487-3.225 4.154-9.546 6.731a52.512 52.512 0 0 1 1.502 3.354c5.689-.714 11.34.43 11.904.55a16.978 16.978 0 0 0-3.86-10.635zm-17.24-5.802c.474.632 3.578 4.855 6.38 9.995 6.078-2.276 8.652-5.73 8.96-6.167A17.036 17.036 0 0 0 24 6.922c-1.38 0-2.72.165-4.006.474zM7.267 20.497c.765.01 7.808.041 15.804-2.08a108.948 108.948 0 0 0-6.338-9.873C11.95 10.797 8.375 15.2 7.266 20.497zM11.3 35.41c.387-.662 5.079-8.42 13.895-11.266.223-.072.448-.14.674-.203-.43-.97-.897-1.94-1.386-2.897-8.537 2.551-16.821 2.445-17.57 2.43A16.992 16.992 0 0 0 11.3 35.41zm19.378 4.3c-.255-1.497-1.247-6.718-3.647-12.946l-.113.038c-9.642 3.355-13.103 10.033-13.411 10.661A17.025 17.025 0 0 0 24 41.066a17.02 17.02 0 0 0 6.678-1.357zm10.2-13.005c-.584-.184-5.29-1.586-10.647-.73 2.235 6.136 3.145 11.134 3.32 12.172 3.836-2.59 6.566-6.692 7.328-11.442z"/>
</svg>
