<svg xmlns="http://www.w3.org/2000/svg" width="48" height="48" viewBox="0 0 48 48">
  <path d="M16.04 22.422h13.213c.12.7.22 1.4.22 2.319 0 7.996-5.357 13.672-13.432 13.672-7.736 0-13.993-6.256-13.993-13.992 0-7.736 6.257-13.992 13.993-13.992 3.778 0 6.936 1.379 9.375 3.658l-3.798 3.658c-1.04-1-2.859-2.16-5.577-2.16-4.778 0-8.676 3.959-8.676 8.836 0 4.877 3.898 8.835 8.676 8.835 5.537 0 7.615-3.978 7.935-6.037h-7.935v-4.797zm29.984 0v3.998h-3.997v3.998h-3.998V26.42H34.03v-3.998h3.998v-3.998h3.998v3.998h3.997z"/>
</svg>
