<svg xmlns="http://www.w3.org/2000/svg" width="48" height="48" viewBox="0 0 48 48">
  <g>
    <path d="M24.003 5.055c5.146 0 5.79.021 7.812.114 2.016.092 3.394.412 4.6.88a9.287 9.287 0 0 1 3.355 2.186 9.289 9.289 0 0 1 2.186 3.356c.468 1.205.788 2.582.88 4.6.092 2.02.114 2.665.114 7.811s-.022 5.791-.114 7.812c-.092 2.017-.412 3.394-.88 4.6a9.289 9.289 0 0 1-2.186 3.356 9.289 9.289 0 0 1-3.356 2.185c-1.205.468-2.583.789-4.6.88-2.02.093-2.665.115-7.811.115s-5.791-.022-7.812-.114c-2.017-.092-3.395-.413-4.6-.881a9.289 9.289 0 0 1-3.356-2.185 9.287 9.287 0 0 1-2.185-3.356c-.469-1.206-.789-2.583-.88-4.6-.093-2.02-.115-2.666-.115-7.812 0-5.146.022-5.79.114-7.812.092-2.017.412-3.394.88-4.6a9.287 9.287 0 0 1 2.186-3.355 9.287 9.287 0 0 1 3.356-2.186c1.205-.468 2.583-.788 4.6-.88 2.02-.093 2.666-.114 7.812-.114zm0 3.414c-5.06 0-5.659.019-7.657.11-1.847.084-2.85.393-3.518.652a5.87 5.87 0 0 0-2.179 1.418 5.87 5.87 0 0 0-1.417 2.178c-.26.668-.568 1.671-.652 3.519-.092 1.998-.11 2.597-.11 7.656 0 5.06.018 5.659.11 7.657.084 1.847.392 2.85.652 3.518a5.87 5.87 0 0 0 1.417 2.178 5.87 5.87 0 0 0 2.179 1.418c.668.26 1.67.568 3.518.652 1.998.091 2.597.11 7.657.11 5.06 0 5.658-.019 7.656-.11 1.847-.084 2.85-.393 3.518-.652a5.87 5.87 0 0 0 2.179-1.418 5.87 5.87 0 0 0 1.417-2.178c.26-.668.569-1.671.653-3.518.09-1.998.11-2.598.11-7.657 0-5.06-.02-5.658-.11-7.656-.084-1.848-.393-2.85-.653-3.519a5.87 5.87 0 0 0-1.417-2.178 5.87 5.87 0 0 0-2.179-1.418c-.667-.26-1.67-.568-3.518-.652-1.998-.091-2.597-.11-7.656-.11z"/>
    <path d="M24.003 30.318a6.316 6.316 0 1 1 0-12.632 6.316 6.316 0 0 1 0 12.632zm0-16.046c-5.374 0-9.73 4.356-9.73 9.73 0 5.374 4.356 9.73 9.73 9.73 5.373 0 9.73-4.356 9.73-9.73 0-5.374-4.357-9.73-9.73-9.73zm12.388-.384a2.274 2.274 0 1 1-4.548 0 2.274 2.274 0 0 1 4.548 0"/>
  </g>
</svg>
