<svg xmlns="http://www.w3.org/2000/svg" width="48" height="48" viewBox="0 0 48 48">
  <path d="M22.59 25.95c-3.424 0-6.185-2.754-6.185-6.152 0-3.413 2.768-6.167 6.185-6.167 3.413 0 6.183 2.768 6.183 6.167 0 3.398-2.77 6.152-6.183 6.152zm.54 1.434c3.496.301 6.246 3.428 6.246 6.984v2.395c0 .33-.272.616-.616.616H16.405a.626.626 0 0 1-.616-.616v-2.395c0-3.556 2.753-6.683 6.249-6.984h.14c.035-.014.071-.014.11-.014.094-.007.197-.007.294-.007h.008c.092 0 .197.007.293.007a.283.283 0 0 0 .108.014h.14zm-15.014-.287c-3.069 0-5.564-2.48-5.564-5.543 0-3.061 2.496-5.542 5.564-5.542 3.076 0 5.564 2.48 5.564 5.542s-2.488 5.543-5.564 5.543zm.491 1.291c3.152.272 5.625 3.069 5.626 6.281v2.151a.553.553 0 0 1-.56.545H2.56A.553.553 0 0 1 2 36.82v-2.15c0-3.213 2.474-6.01 5.625-6.296h.219c.097-.015.183-.015.272-.015h.007c.09 0 .176 0 .266.015h.093c.046 0 .082.014.125.014zm29.904-3.7c-3.8 0-6.876-3.069-6.876-6.84 0-3.786 3.075-6.848 6.876-6.848 3.786 0 6.87 3.069 6.87 6.847 0 3.786-3.084 6.841-6.87 6.841zm.602 1.591c3.88.33 6.941 3.801 6.941 7.744v2.653a.695.695 0 0 1-.681.703H31.635a.69.69 0 0 1-.681-.703v-2.653c0-3.943 3.054-7.414 6.94-7.744.058-.014.1-.014.158-.014.036 0 .08-.014.115-.014h.674a.385.385 0 0 0 .122.014c.05 0 .1.014.15.014z"/>
</svg>
