<svg xmlns="http://www.w3.org/2000/svg" viewBox="0 0 48 48">
  <path d="M24 4.061c-11.039 0-19.988 8.95-19.988 19.988 0 8.468 5.269 15.7 12.704 18.612-.175-1.581-.333-4.007.07-5.733.363-1.56 2.343-9.935 2.343-9.935s-.598-1.198-.598-2.968c0-2.78 1.611-4.854 3.617-4.854 1.705 0 2.529 1.28 2.529 2.815 0 1.715-1.092 4.28-1.656 6.655-.47 1.99.998 3.612 2.96 3.612 3.553 0 6.283-3.746 6.283-9.153 0-4.785-3.438-8.131-8.348-8.131-5.688 0-9.026 4.265-9.026 8.674 0 1.718.662 3.56 1.488 4.561.163.198.187.371.138.573-.151.632-.488 1.99-.555 2.267-.087.366-.29.444-.668.267-2.497-1.162-4.057-4.811-4.057-7.743 0-6.305 4.58-12.095 13.206-12.095 6.934 0 12.322 4.94 12.322 11.544 0 6.888-4.343 12.432-10.371 12.432-2.026 0-3.93-1.052-4.582-2.295 0 0-1.002 3.816-1.245 4.751-.451 1.736-1.67 3.912-2.484 5.24 1.87.58 3.857.891 5.918.891 11.039 0 19.988-8.948 19.988-19.987C43.988 13.01 35.038 4.06 24 4.06"/>
</svg>
