<svg xmlns="http://www.w3.org/2000/svg" width="48" height="48" viewBox="0 0 48 48">
  <path d="M41.44 27.143a10.636 10.636 0 0 1 1.39 5.273c0 5.875-4.736 10.637-10.577 10.637-1.907 0-3.697-.508-5.242-1.398-1.003.177-2.035.27-3.09.27-9.822 0-17.785-8.01-17.785-17.89 0-1.06.09-2.097.267-3.106a10.615 10.615 0 0 1-1.39-5.273c0-5.874 4.735-10.637 10.575-10.637 1.909 0 3.7.507 5.244 1.397a17.785 17.785 0 0 1 3.09-.268c9.822 0 17.786 8.01 17.786 17.887 0 1.061-.092 2.1-.268 3.108zm-17.446 8.335c6.01 0 9.061-3.04 9.061-6.978 0-2.544-1.219-5.216-5.774-6.245l-4.159-.938c-1.581-.365-3.366-.88-3.366-2.393 0-1.518 1.217-2.598 3.524-2.598 4.647 0 4.263 3.246 6.57 3.246 1.215 0 2.26-.679 2.26-1.924 0-2.91-4.621-5.054-8.509-5.054-4.223 0-8.653 1.752-8.653 6.599 0 2.333.793 4.851 5.318 6.002l5.619 1.424c1.7.426 2.202 1.401 2.202 2.278 0 1.457-1.511 3.01-4.093 3.01-5.043 0-4.34-4.056-7.043-4.056-1.214 0-2.163.835-2.163 2.047 0 2.363 2.887 5.58 9.206 5.58z"/>
</svg>
