<svg xmlns="http://www.w3.org/2000/svg" width="48" height="48" viewBox="0 0 48 48">
  <path d="M39.08 25.562c0-.415.336-.751.751-.751h5.418a.75.75 0 0 1 .751.75v4.887c0 5.462-4.485 9.896-9.966 9.812-5.384-.082-9.66-4.576-9.66-9.961v-4.157a.83.83 0 0 1 1.134-.772l1.52.6a.83.83 0 0 0 .593.006l2.554-.943a.83.83 0 0 1 1.118.779v4.636a2.897 2.897 0 0 0 2.844 2.893c1.619.028 2.943-1.35 2.943-2.97v-4.81zM26.373 17.1c0-1.276-.979-2.376-2.253-2.439a2.376 2.376 0 0 0-2.493 2.37v13.417c0 5.462-4.485 9.896-9.966 9.812C6.276 40.178 2 35.684 2 30.3V25.56a.75.75 0 0 1 .75-.75H8.17a.75.75 0 0 1 .75.75v4.887a2.897 2.897 0 0 0 2.845 2.893c1.619.028 2.943-1.35 2.943-2.97v-13.34c0-5.172 4.247-9.37 9.437-9.291 5.1.077 9.149 4.333 9.149 9.432v1.951a.83.83 0 0 1-.543.779l-3.075 1.137a.83.83 0 0 1-.593-.007l-2.183-.861a.83.83 0 0 1-.526-.772V17.1z"/>
</svg>
