<svg xmlns="http://www.w3.org/2000/svg" viewBox="0 0 48 48">
  <path d="M34.232 39.834c-1.22 1.302-4.047 2.186-6.578 2.228h-.278c-8.503 0-10.35-6.252-10.35-9.9V22.022h-3.35a.702.702 0 0 1-.702-.702v-4.788c0-.505.319-.955.795-1.123 4.365-1.538 5.734-5.348 5.937-8.243.055-.774.46-1.15 1.131-1.15h4.993c.388 0 .702.315.702.703v8.109h5.845c.387 0 .702.312.703.7v5.753a.702.702 0 0 1-.703.702h-5.871v9.376c0 2.354 1.55 3.004 2.51 3.004.918-.022 1.823-.302 2.277-.484.337-.136.633-.225.897-.159.247.062.409.236.518.555l1.55 4.525c.125.363.233.755-.026 1.033z"/>
</svg>
