<svg xmlns="http://www.w3.org/2000/svg" width="48" height="48" viewBox="0 0 48 48">
  <path d="M42.765 15.314c-.176 3.856-2.863 9.135-8.062 15.836-5.375 7-9.922 10.499-13.642 10.499-2.304 0-4.255-2.131-5.847-6.394l-3.19-11.723c-1.184-4.26-2.453-6.394-3.809-6.394-.296 0-1.33.624-3.103 1.866l-1.86-2.401a503 503 0 0 0 5.77-5.155c2.602-2.253 4.555-3.437 5.857-3.557 3.077-.296 4.97 1.81 5.681 6.321.768 4.867 1.3 7.894 1.598 9.078.887 4.038 1.863 6.054 2.929 6.054.827 0 2.07-1.31 3.727-3.928 1.656-2.62 2.543-4.612 2.662-5.981.236-2.26-.651-3.394-2.662-3.394-.946 0-1.922.219-2.925.65 1.942-6.376 5.654-9.473 11.133-9.296 4.062.12 5.977 2.759 5.743 7.92"/>
</svg>
