<svg xmlns="http://www.w3.org/2000/svg" width="48" height="48" viewBox="0 0 48 48">
  <path d="M35.07 23.329c2.524.783 5.334 2.676 5.334 6.011 0 5.52-7.962 12.475-19.93 12.475-9.13 0-18.463-4.424-18.463-11.702 0-3.805 2.41-8.205 6.562-12.356 5.543-5.542 12.007-8.066 14.438-5.634 1.073 1.072 1.176 2.927.487 5.143-.36 1.116 1.047.498 1.047.5 4.48-1.875 8.39-1.985 9.818.055.762 1.088.69 2.614-.013 4.382-.325.813.1.94.72 1.126zM20.498 39.207c7.286-.72 12.808-5.182 12.336-9.967-.473-4.781-6.762-8.075-14.048-7.353-7.284.72-12.808 5.18-12.335 9.962.473 4.784 6.762 8.076 14.047 7.358zm.75-13.462c3.587.927 5.418 4.312 3.952 7.6-1.488 3.362-5.764 5.155-9.392 3.985-3.502-1.13-4.985-4.589-3.452-7.704 1.506-3.055 5.425-4.783 8.891-3.88zM18.6 33.702c.692-1.136.327-2.433-.814-2.92-1.128-.473-2.586.014-3.282 1.105-.705 1.097-.375 2.403.745 2.913 1.137.518 2.646.026 3.35-1.098zm2.321-2.98c.243-.438.086-.932-.354-1.093-.433-.171-.975.037-1.229.463-.246.428-.11.915.324 1.094.44.181 1.004-.028 1.26-.464zm17.633-16.41v-.001a5.665 5.665 0 0 1 1.184 5.551 1.452 1.452 0 0 1-1.827.935 1.452 1.452 0 0 1-.933-1.827h-.001a2.772 2.772 0 0 0-.578-2.716 2.78 2.78 0 0 0-2.641-.851V15.4a1.45 1.45 0 0 1-.605-2.835 5.67 5.67 0 0 1 5.4 1.745zm4.463-4.301c2.892 3.2 3.671 7.565 2.437 11.394v.007a1.685 1.685 0 0 1-2.121 1.082 1.683 1.683 0 0 1-1.086-2.122v-.001A8.283 8.283 0 0 0 32.63 9.718a1.684 1.684 0 1 1-.704-3.296h.002c3.935-.836 8.199.385 11.088 3.589z"/>
</svg>
