<svg xmlns="http://www.w3.org/2000/svg" viewBox="0 0 48 48">
  <g>
    <path d="M44 23.501c0 10.762-8.79 19.486-19.636 19.486a19.67 19.67 0 0 1-9.493-2.425L4 44.017l3.545-10.454A19.28 19.28 0 0 1 4.726 23.5c0-10.761 8.792-19.485 19.638-19.485C35.21 4.016 44 12.74 44 23.5zM24.365 7.12c-9.105 0-16.51 7.35-16.51 16.382a16.21 16.21 0 0 0 3.145 9.605L8.936 39.19l6.345-2.016a16.5 16.5 0 0 0 9.083 2.71c9.103 0 16.51-7.349 16.51-16.382 0-9.033-7.407-16.383-16.51-16.383z"/>
    <path d="M34.28 27.989c-.121-.199-.442-.319-.923-.557-.482-.239-2.849-1.395-3.289-1.554-.441-.159-.763-.239-1.083.239-.32.478-1.244 1.553-1.525 1.872-.28.32-.561.36-1.043.12-.48-.238-2.032-.743-3.87-2.37-1.431-1.266-2.397-2.828-2.678-3.307-.28-.478-.03-.736.21-.974.218-.214.483-.558.723-.836.241-.28.321-.478.481-.797.161-.319.08-.598-.04-.837s-1.084-2.59-1.484-3.546c-.401-.955-.802-.796-1.083-.796-.28 0-.602-.04-.923-.04-.32 0-.843.12-1.284.597-.44.479-1.684 1.634-1.684 3.984s1.724 4.621 1.965 4.94c.24.317 3.33 5.297 8.223 7.21 4.894 1.911 4.894 1.274 5.777 1.194.881-.08 2.847-1.156 3.25-2.27.4-1.117.4-2.073.28-2.272z"/>
  </g>
</svg>
