<svg xmlns="http://www.w3.org/2000/svg" width="48" height="48" viewBox="0 0 48 48">
  <path d="M13 35c0 1.009.826 1.834 1.834 1.834h1.833v6.416a2.746 2.746 0 0 0 2.75 2.75 2.746 2.746 0 0 0 2.75-2.75v-6.416h3.666v6.416a2.746 2.746 0 0 0 2.75 2.75 2.746 2.746 0 0 0 2.75-2.75v-6.416h1.833A1.839 1.839 0 0 0 35 35V16.668H13.001v18.333zM8.418 16.669a2.746 2.746 0 0 0-2.75 2.75v12.833A2.746 2.746 0 0 0 8.418 35a2.746 2.746 0 0 0 2.75-2.75V19.418a2.746 2.746 0 0 0-2.75-2.75zm31.166 0a2.746 2.746 0 0 0-2.75 2.75v12.833a2.746 2.746 0 0 0 2.75 2.75 2.746 2.746 0 0 0 2.75-2.75V19.418a2.746 2.746 0 0 0-2.75-2.75zM30.47 5.962C33.212 7.96 35 11.187 35 14.835H13.001c0-3.639 1.778-6.866 4.5-8.873L15.1 3.561a.913.913 0 1 1 1.292-1.293l2.722 2.722A10.928 10.928 0 0 1 24 3.836c1.75 0 3.391.421 4.858 1.145l2.713-2.704a.913.913 0 1 1 1.293 1.293L30.47 5.962zm-10.137 5.206V9.335H18.5v1.833h1.834zm9.166 0V9.335h-1.834v1.833H29.5z"/>
</svg>
