<svg xmlns="http://www.w3.org/2000/svg" width="48" height="48" viewBox="0 0 48 48">
  <path d="M41.915 32.278C34.998 29.325 33.501 19.673 40.761 15c-2.586-3.781-6.614-4.3-8.047-4.358-3.424-.349-6.687 2.019-8.425 2.019-1.734 0-4.418-1.967-7.258-1.918-3.737.057-7.182 2.174-9.104 5.52-3.88 6.731-.992 16.707 2.79 22.17 1.848 2.67 4.053 5.675 6.945 5.565 2.787-.11 3.84-1.804 7.209-1.804 3.369 0 4.316 1.712 7.265 1.746 4.48.052 8.833-8.452 9.78-11.66zM32.762 0c-4.651.246-9.343 4.976-8.817 10.14 5.31.023 9.239-4.897 8.817-10.14z"/>
</svg>
