<svg xmlns="http://www.w3.org/2000/svg" width="48" height="48" viewBox="0 0 48 48">
  <path d="M14.125 23.492a48.162 48.162 0 0 1-1.78-5.196C5.423 19.71.61 23.048 8.054 26.932c1.355.77.253 2.672-1.042 2.02-8.875-4.484-5.146-11.112 4.792-12.86C9.347 5.355 14.32.448 21.858 6.694c1.155 1.21-.422 2.566-1.453 1.749-5.73-4.791-8.17-1.724-6.363 7.25a48.445 48.445 0 0 1 5.457-.486C24.15 8.996 29.63 5.032 33.435 4.888c3.458-.131 5.538 2.949 4.367 9.165-.437 1.525-2.368 1.025-2.231-.438.791-3.789.103-6.671-2.143-6.476-2.446.093-6.645 2.855-10.993 8.045 28.65 1.66 26.486 12.949 17.881 15.527-1.574.463-2.14-1.574-.823-2.12 11.959-4.67-4.06-11.514-18.849-11.14-1.354 1.777-2.685 3.88-4.002 6.173 11.722 24.447 24.906 24.32 13.68-1.415-.492-1.435 1.308-2.264 2.048-.985 5.361 10.63 5.704 20.174 1.683 22.366-3.227 1.76-10.594-.87-18.752-17.402-4.467 9.36-5.4 18.996 4.011 12.564 1.635-.828 2.337 1.213 1.32 1.851-10.42 7.467-14.682-2.124-6.507-17.11zm3.633-5.922c-1.113.078-2.17.19-3.164.333.28.988.608 2.002.982 3.03a55.13 55.13 0 0 1 2.182-3.363zm8.841 6.735c0-1.906-2.076-3.104-3.728-2.151-1.653.953-1.653 3.35 0 4.303 1.652.953 3.728-.245 3.728-2.152z"/>
</svg>
