<svg xmlns="http://www.w3.org/2000/svg" width="48" height="48" viewBox="0 0 48 48">
  <path d="M26.682 18.623l.006-7.965-5.376-1.593v7.766l5.37 1.792zm1.4-7.965v7.965l5.358-1.797.019-7.761-5.377 1.593zm4.282-2.434l-5.011-1.549-4.946 1.549 4.953 1.328 5.004-1.328zm7.859 10.4l.006-7.966-5.376-1.593v7.766l5.37 1.792zm1.4-7.966v7.965l5.358-1.797L47 9.065l-5.377 1.593zm4.282-2.434l-5.011-1.549-4.946 1.549 4.953 1.328 5.004-1.328zM6.377 22.009L1 20.416v7.766l5.37 1.792.007-7.965zm1.394 0v7.965l5.358-1.797.018-7.761-5.376 1.593zm4.28-2.434l-5.01-1.549-4.946 1.549 4.953 1.327 5.004-1.327zm7.86 10.399l.007-7.965-5.377-1.593v7.766l5.37 1.792zm1.4-7.965v7.965l5.359-1.797.018-7.761-5.376 1.593zm4.282-2.434l-5.011-1.549-4.946 1.549 4.953 1.327 5.004-1.327zm-12.452 21.75l.006-7.966-5.376-1.593v7.766l5.37 1.793zm1.4-7.966v7.966l5.358-1.798.019-7.76-5.377 1.592zm4.282-2.434l-5.012-1.548-4.945 1.548 4.953 1.328 5.004-1.328z"/>
</svg>
