<svg xmlns="http://www.w3.org/2000/svg" width="48" height="48" viewBox="0 0 48 48">
  <path d="M28.313 25.94c1.725 0 3.018 1.15 3.018 2.876 0 1.725-1.293 3.018-2.875 3.018-1.293 0-2.3-.718-2.731-1.725H8.619C4.45 30.11 1 26.803 1 22.491c0-4.313 3.45-7.763 7.619-7.763h.575c1.437-3.45 4.743-5.894 8.625-5.894 3.45 0 6.325 1.725 7.906 4.457-.863.143-1.581.431-2.3.718-1.294-1.725-3.306-2.875-5.606-2.875a6.842 6.842 0 0 0-6.038 3.594c-.144.144-.144.431-.287.575-.144.575-.431 1.15-.431 1.725H8.619c-2.875 0-5.175 2.444-5.175 5.319s2.3 5.319 5.175 5.319H25.58c.575-1.007 1.582-1.725 2.732-1.725zm9.487-5.893c5.031.144 9.2 4.312 9.2 9.631s-4.169 9.488-9.344 9.488H18.97c-4.025 0-7.475-3.163-8.05-7.188h13.944c.862 1.006 2.156 1.725 3.593 1.725 2.444 0 4.6-2.156 4.6-4.744 0-2.587-2.012-4.743-4.6-4.743-1.437 0-2.731.575-3.593 1.725H12.356c1.294-1.87 3.45-3.163 5.894-3.45 1.006-4.744 5.175-8.338 10.206-8.338 4.025 0 7.619 2.444 9.344 5.894z"/>
</svg>
