<svg xmlns="http://www.w3.org/2000/svg" width="48" height="48" viewBox="0 0 48 48">
  <path d="M24 34.207c1.241 0 2.276-.276 2.828-.483l-5.794 10.07c-4.827-.76-8.896-2.966-12.137-6.69C5.655 33.378 4 29.033 4 24c0-3.517.759-6.897 2.483-10l8.276 14.345c.827 1.724 2.069 3.103 3.724 4.207C20.138 33.655 22 34.207 24 34.207zm-6.276-18.483c-1.862 1.448-3.172 3.31-3.724 5.517l-5.793-9.517C10 9.241 12.552 7.31 15.24 6A19.9 19.9 0 0 1 24 4c3.586 0 6.897.897 9.931 2.69 3.035 1.724 5.448 3.93 7.241 6.965H24c-2.345 0-4.414.62-6.276 2.07zm24.759.759C43.586 18.759 44 21.448 44 24c0 5.448-1.931 10.138-5.793 14.069-3.862 3.931-8.552 5.862-14 5.931l8.276-14.138c1.172-1.793 1.793-3.724 1.793-5.862 0-2.897-1.38-5.517-3.38-7.517h11.587zM24 16.413c4.138 0 7.586 3.449 7.586 7.587S28.138 31.586 24 31.586 16.414 28.138 16.414 24s3.448-7.586 7.586-7.586z"/>
</svg>
