<svg xmlns="http://www.w3.org/2000/svg" width="48" height="48" viewBox="0 0 48 48">
  <path d="M14.177 19.543c-.19.4-.457.628-.857.628H5.262c-.571 0-1.137-.487-.942-1.085C6.548 10.514 14.405 4 23.72 4c11.028 0 20 8.971 20 20s-8.972 20-20 20c-9.315 0-17.143-6.4-19.372-15.086-.2-.52.178-1.178.914-1.2h8.058c.485-.002.738.32.857.629 1.657 3.543 5.257 6.057 9.485 6.057 5.772 0 10.458-4.686 10.458-10.457 0-5.772-4.686-10.457-10.458-10.457a10.445 10.445 0 0 0-9.485 6.057zm7.166 8.562c-3.155-1.82-3.155-6.39 0-8.21 3.155-1.818 7.12.467 7.12 4.105 0 3.638-3.965 5.923-7.12 4.105z"/>
</svg>
