<svg xmlns="http://www.w3.org/2000/svg" width="48" height="48" viewBox="0 0 48 48">
  <path d="M23.77 20.675c-1.129-2.063-3.06-2.881-5.303-2.881-3.262 0-5.855 2.305-5.855 6.214 0 3.971 2.437 6.214 5.964 6.214 2.266 0 4.19-1.246 5.256-3.13l-2.484-1.262c-.552 1.331-1.393 1.728-2.46 1.728-1.846 0-2.687-1.534-2.687-3.55 0-2.017.71-3.55 2.687-3.55.53 0 1.596.287 2.219 1.619l2.663-1.402zm8.885 1.402c-.623-1.332-1.69-1.62-2.22-1.62-1.977 0-2.686 1.534-2.686 3.55 0 2.017.849 3.551 2.686 3.551 1.067 0 1.908-.397 2.461-1.728l2.484 1.261c-1.067 1.885-2.99 3.13-5.256 3.13-3.527 0-5.965-2.242-5.965-6.213 0-3.91 2.593-6.214 5.856-6.214 2.243 0 4.174.818 5.303 2.881l-2.663 1.402zM44 24c0 15.36-16.72 25.012-30.023 17.332s-13.303-26.984 0-34.664C27.281-1.012 44 8.64 44 24zM15.792 38.148c10.895 6.28 24.587-1.613 24.587-14.175 0-12.562-13.692-20.456-24.587-14.175-10.895 6.28-10.895 22.069 0 28.35z"/>
</svg>
