<svg xmlns="http://www.w3.org/2000/svg" width="48" height="48" viewBox="0 0 48 48">
  <path d="M24 44c-9.465 0-17.144-2.56-17.144-5.715v-5.714c0-.496.25-.97.607-1.428 1.911 2.46 8.557 4.285 16.537 4.285 7.98 0 14.626-1.824 16.537-4.285.358.46.605.932.605 1.428v5.714c0 3.153-7.679 5.715-17.143 5.715zm17.144-22.858v5.714c0 3.153-7.68 5.715-17.144 5.715-9.464 0-17.144-2.562-17.144-5.715v-5.714c.024-.565.32-1.041.607-1.43 1.911 2.46 8.557 4.285 16.537 4.285 7.98 0 14.626-1.826 16.537-4.285.337.464.594.939.607 1.43zm-17.146.002c-9.464 0-17.142-2.56-17.142-5.715V9.715C6.856 6.56 14.534 4 23.998 4 33.463 4 41.14 6.56 41.14 9.715v5.714c0 3.154-7.677 5.715-17.142 5.715zM35.426 9.716c0-2.191-9.553-3.568-17.154-2.472-7.601 1.095-7.601 3.85 0 4.945 7.6 1.096 17.154-.281 17.154-2.473z"/>
</svg>
