<svg xmlns="http://www.w3.org/2000/svg" width="48" height="48" viewBox="0 0 48 48">
  <path d="M18.108 11.366c1.039.192.75 1.759-.29 1.567-8.24-1.532-14.014 1.725-9.643 9.79.522.916-.864 1.706-1.386.79-5.205-9.117 1.544-13.998 11.319-12.147zm20.784 15.465c-.655.786-1.9-.2-1.22-1.026 6.172-7.432 4.306-13.233-3.534-13.2-1.052-.013-1.033-1.605.019-1.592 8.858.11 12.102 6.81 4.735 15.818zm-7.749 14.13c-5.422 8.916-13.157 4.99-16.074-3.918-.357-1.013 1.149-1.543 1.505-.53 3.297 8.505 8.745 10.678 13.202 3.625.565-.904 1.906-.071 1.367.823zm-4.882-15.865c0 1.719-1.873 2.799-3.363 1.94-1.49-.86-1.49-3.02 0-3.879s3.363.22 3.363 1.94zm-19.58 7.24c1.559.024 2.983 1.272 2.983 3.005 0 2.305-2.521 3.753-4.527 2.6-1.987-1.14-2.007-3.992-.06-5.167-.56-8.74 12.765-18.725 23.998-21.212 1.044-.227 1.383 1.33.339 1.557C17.252 16.226 6.94 25.256 6.68 32.336zm33.025 5.52c-7.924 4.197-22.666-2.29-29.92-10.313-.701-.772.48-1.843 1.18-1.07 7.65 8.104 20.66 13.203 27.664 10.156-.91-1.875.366-4.166 2.534-4.292 2.31-.133 3.917 2.289 2.886 4.35-.837 1.674-2.91 2.101-4.344 1.169zM27.036 5.002c7.796 4.766 9.566 20.408 6.295 30.971-.31 1.008-1.836.536-1.525-.471 3.6-13.015.222-25.312-5.221-28.91-.94 1.512-3.126 1.943-4.578.648-1.727-1.54-1.132-4.373 1.068-5.089 1.993-.648 3.962.88 3.961 2.85z"/>
</svg>
