<svg xmlns="http://www.w3.org/2000/svg" width="48" height="48" viewBox="0 0 48 48">
  <path d="M7.25 16.633c-.563-2.05.198-6.693 1.375-9.524 2.664.284 5.942 1.787 9.868 4.5 3.516-.726 7.162-.68 10.914 0 3.572-2.35 6.914-4.014 9.861-4.5 1.129 2.832 2.036 7.966 1.392 9.524h.005c6.843 7.45 2.714 22.533-8.36 23.766-3.614.64-13.789.671-16.698 0C3.03 38.388 1.396 22.44 7.25 16.633zM23.954 38.88c4.792 0 8.5-.572 10.952-1.722 2.447-1.154 3.691-3.528 3.691-7.105-.035-1.356-.221-2.677-1.22-3.975-3.172-4.123-7.101-2.353-13.331-2.35-8.596-.405-13.707-1.592-14.635 6.32 0 3.579 1.212 5.95 3.634 7.1 2.42 1.158 6.116 1.732 10.91 1.732zm-8.297-4.852c-1.878-1.493-1.878-5.246 0-6.74 1.877-1.492 4.237.384 4.237 3.37s-2.36 4.863-4.237 3.37zm18.006-3.37c0-2.986-2.36-4.862-4.237-3.37-1.878 1.494-1.878 5.247 0 6.74 1.877 1.493 4.237-.384 4.237-3.37z"/>
</svg>
