<svg xmlns="http://www.w3.org/2000/svg" width="48" height="48" viewBox="0 0 48 48">
  <path d="M39.067 28.752a3.55 3.55 0 0 1 2.724 3.44 3.57 3.57 0 0 1-3.538 3.595 3.547 3.547 0 0 1-2.69-1.196l-8.178 4.72a3.568 3.568 0 0 1-4.976 4.313 3.561 3.561 0 0 1-1.827-4.196l-8.226-4.75a3.567 3.567 0 0 1-2.354 1.1 3.568 3.568 0 0 1-3.784-3.336 3.571 3.571 0 0 1 2.717-3.688V19.25a3.568 3.568 0 0 1-2.268-1.703 3.57 3.57 0 0 1 1.337-4.864 3.568 3.568 0 0 1 4.351.647l8.227-4.75c-.227-.765-.2-1.61.136-2.403a3.561 3.561 0 0 1 4.673-1.893 3.561 3.561 0 0 1 2.026 4.3l8.227 4.75c.231-.245.5-.462.808-.64A3.573 3.573 0 0 1 41.324 14a3.573 3.573 0 0 1-1.308 4.872c-.304.175-.624.3-.95.378v9.501zm-25.825 2.623h21.516a3.558 3.558 0 0 1 1.006-1.735L24.997 10.99a3.547 3.547 0 0 1-1.988 0L12.24 29.64c.482.461.837 1.058 1.002 1.734zm21.902-13.809a3.559 3.559 0 0 1-.338-2.757l-8.245-4.76a3.551 3.551 0 0 1-.095.094l10.768 18.652a3.56 3.56 0 0 1 .137-.037v-9.516a3.544 3.544 0 0 1-2.227-1.676zm-13.605-7.42a3.548 3.548 0 0 1-.103-.101l-8.24 4.758a3.571 3.571 0 0 1-2.565 4.442v9.51l.14.038L21.54 10.145zm5.097 27.888l8.191-4.729a3.555 3.555 0 0 1-.065-.234H13.24a3.544 3.544 0 0 1-.038.139l8.23 4.751a3.562 3.562 0 0 1 5.203.073z"/>
</svg>
