<svg xmlns="http://www.w3.org/2000/svg" width="48" height="48" viewBox="0 0 48 48">
  <path d="M6 6h36v36H6V6zm3.333 29.25v2.25h13.5v-2.25h-13.5zm9.75-21.833v-2.75h-7.5v2.75h2.167v9.416h-2.167v2.75h7.5v-2.75H17v-9.416h2.083zm7.167 12.416c.833 0 1.5-.166 2.167-.416.666-.167 1.25-.584 1.666-1 .5-.5.834-1 1.084-1.667.25-.667.333-1.417.333-2.333v-9.75h-3.333v9.583c0 .917-.167 1.5-.5 1.917-.417.416-.917.583-1.5.583-.5 0-1-.167-1.417-.417a4.837 4.837 0 0 1-1.25-1.083l-2.083 2.333a7.21 7.21 0 0 0 1.916 1.584c.75.416 1.75.666 2.917.666z"/>
</svg>
