<svg xmlns="http://www.w3.org/2000/svg" width="48" height="48" viewBox="0 0 48 48">
  <path d="M25.994 6.613l.696.016C41.232.13 45.685 6.538 41.512 16.467c2.14 4.445 2.062 7.776 1.813 10.878H18.478c.193 4.32 3.603 7.76 7.78 7.76 2.894 0 5.42-1.653 6.762-4.103h9.465c-2.401 7.104-8.878 12.194-16.491 12.194a16.8 16.8 0 0 1-7.683-1.857c-.974.504-4.41 2.238-6.308 2.521-5.52.825-8.104-2.048-7.313-7.427.578-3.923 1.972-7.644 3.898-11.087 2.282-4.078 5.45-8.044 9.032-11.971 0 0-5.246 2.881-8.845 8.316 1.453-8.57 8.609-15.078 17.219-15.078zM12.109 42.528c1.591-.175 3.91-1.457 4.812-1.987-3.266-2.077-5.83-5.24-7.23-9.012-4.347 7.96-.533 11.325 2.418 11zm20.432-34.59v-.001c3.49 1.476 6.421 4.095 8.367 7.413.36-1.245.765-2.687.877-3.23.81-3.935-1.87-7.797-9.244-4.182zM18.535 21.91h15.446c-.494-4.003-3.761-7.095-7.723-7.095-3.961 0-7.229 3.093-7.723 7.095z"/>
</svg>
