<svg xmlns="http://www.w3.org/2000/svg" width="48" height="48" viewBox="0 0 48 48">
  <path d="M25.396 18.665L20.426 4H41.54l-4.987 14.708a5.034 5.034 0 0 0-.632.195L30.995 8.854l-4.94 9.99a5.031 5.031 0 0 0-.659-.179zM9.16 42.671c-3.798-3.058-3.384-7.997-.037-14.247.415.166.857.279 1.317.33-1.038 3.654 1.252 6.39 3.685 7.513 3.6-1.17 6.774-3.471 9.512-7.567 3.497.35 5.754-2.01 5.857-5.01h3.153c-.027 3.361 3.85 6.71 7.999 4.154 2.231 5.46-1.685 8.988-7.446 9.33C23.166 38.31 15.8 47.335 9.16 42.67zm4.943-18.98c0 2.374-2.587 3.866-4.646 2.679-2.058-1.187-2.058-4.17 0-5.357 2.06-1.187 4.646.305 4.646 2.678zm13.392-.03c0 2.375-2.588 3.866-4.646 2.68-2.06-1.187-2.06-4.17 0-5.358 2.058-1.187 4.646.305 4.646 2.679zm13.34 0c0 2.375-2.587 3.866-4.646 2.68-2.058-1.187-2.058-4.17 0-5.358 2.06-1.187 4.647.305 4.647 2.679z"/>
</svg>
