<svg xmlns="http://www.w3.org/2000/svg" width="48" height="48" viewBox="0 0 48 48">
  <path d="M25.307 43.277c-5.903 0-16.095-3.759-20.196-14.878-2.112-5.728-1.48-12.117 4.23-18.133-4.107 8.349-.287 17.28 5.98 22.69 7.189 6.206 20.681 8.31 27.722-.478-4.06 8.424-11.073 10.8-17.736 10.8zM44 22.481c-2.963 7.485-10.578 9.324-16.697 7.786-4.443-1.118-8.26-4.426-10.173-8.276-3.288-6.619-.7-11.549 2.515-15.458 0 0-5.952 9.927 5.682 18.14C31.255 28.857 39.998 28.25 44 22.48zm-1.061-7.366c-2.035 4.778-8.955 6.808-14.105 2.229-4.163-3.7-4.215-8.949-.909-12.621 0 0-3.33 5.783 3.302 11.008 2.97 2.34 9.304 3.132 11.712-.616z"/>
</svg>
