<svg xmlns="http://www.w3.org/2000/svg" width="48" height="48" viewBox="0 0 48 48">
  <path d="M39.682 42.343L2 2.429l40.173 37.65s.756 1.057-.226 2.113-2.265.15-2.265.15zm2.945-5.206L13.93 6.2 45.12 34.873s.755 1.056-.227 2.113c-.982 1.056-2.265.15-2.265.15zm-8.383 8.073L5.55 14.275l31.187 28.671s.756 1.057-.226 2.113-2.266.15-2.266.15zm9.821-14.152L24.018 9.446l21.788 20.031s.528.738-.158 1.476-1.583.105-1.583.105zM28.358 45.243L8.311 23.631l21.788 20.03s.528.739-.158 1.477c-.686.738-1.583.105-1.583.105zM43.406 23.95l-9.086-9.825 9.948 9.084s.26.346-.079.692-.783.05-.783.05zM22.413 43.416l-9.086-9.826 9.948 9.085s.26.345-.079.691-.783.05-.783.05z"/>
</svg>
