<svg xmlns="http://www.w3.org/2000/svg" width="48" height="48" viewBox="0 0 48 48">
  <path d="M22.377 44.568l-5.14-3.04c-.766-.429-.391-.582-.138-.67 1.023-.355 1.23-.437 2.322-1.058.115-.063.264-.04.384.03l3.948 2.343c.145.08.344.08.478 0l15.39-8.882a.487.487 0 0 0 .236-.416V15.112a.498.498 0 0 0-.239-.425L24.234 5.812a.482.482 0 0 0-.475 0L8.38 14.69a.492.492 0 0 0-.244.421v17.764c0 .17.093.33.242.412l4.217 2.435c2.288 1.144 3.689-.203 3.689-1.557V16.628c0-.249.2-.443.448-.443h1.952c.243 0 .445.194.445.443v17.538c0 3.052-1.663 4.805-4.557 4.805-.89 0-1.59 0-3.546-.965l-4.036-2.323a3.252 3.252 0 0 1-1.614-2.808V15.112c0-1.154.618-2.23 1.614-2.805l15.393-8.894c.974-.55 2.268-.55 3.234 0l15.391 8.894a3.249 3.249 0 0 1 1.618 2.805v17.763c0 1.154-.62 2.227-1.618 2.808l-15.39 8.885c-1.09.607-2.17.544-3.24 0zM35.36 21.58H33.36a.444.444 0 0 1-.431-.348c-.48-2.132-1.646-2.813-4.807-2.813-3.54 0-3.952 1.233-3.952 2.157 0 1.12.486 1.447 5.264 2.078 4.73.625 6.979 1.511 6.979 4.834 0 3.354-2.793 5.274-7.67 5.274-6.737 0-8.146-3.092-8.146-5.686a.44.44 0 0 1 .443-.443h1.99c.222 0 .409.16.442.377.3 2.025 1.194 3.05 5.27 3.05 3.24 0 4.621-.735 4.621-2.454 0-.993-.39-1.727-5.43-2.222-4.21-.416-6.816-1.347-6.816-4.715 0-3.106 2.618-4.958 7.007-4.958 4.931 0 7.37 1.71 7.68 5.385a.458.458 0 0 1-.445.484z"/>
</svg>
