<svg xmlns="http://www.w3.org/2000/svg" width="48" height="48" viewBox="0 0 48 48">
  <path d="M40.23 11.187a18.318 18.318 0 0 1 2.945 5.443c.708 2.096.764 4.33.818 6.52a21.767 21.767 0 0 1-.539 5.345c-.171.754-.495 1.473-.745 2.2-.187.545.538 1.26.812 1.687-.239.12-.465.196-.732.209-.198.01-.415-.025-.61.028-.376.104-.47.605-.63.916-.578 1.119-1.24 2.22-2.032 3.2a15.432 15.432 0 0 1-1.368 1.502c-.235.223-.492.419-.733.633-.073.065-.157.125-.206.21a.739.739 0 0 1-.256.195c-.124.033-.216.168-.313.243-.166.13-.41.216-.536.39-.118.161.002.25-.13.407a.652.652 0 0 1-.202.154c-.099.03-.146-.084-.278-.012.148.24-.427.482-.597.442-.074-.017-.134-.114-.198-.112-.099.002-.221.133-.306.18h.324c-.19.131-.37.292-.597.346a.218.218 0 0 1-.15-.019l-.067.074a6.967 6.967 0 0 1-.22.08c-.133.045-.23.12-.358.165-.182.064-.34.108-.523.202a3.54 3.54 0 0 1-.659.259c-.112.03-.292.02-.385.089-.108.08-.1.215-.219.292-.13.083-.361.053-.507.062l.134-.135c-.233-.019-.645.272-.774.462-.07.103-.018.165-.132.247-.093.067-.277.062-.384.082-.714.135-1.312.37-1.99.419-.162.012-.29-.016-.442.052-.057.026-.1.094-.165.103-.082.012-.13-.056-.185-.058-.347-.014-.737.19-1.101.207-.814.037-1.593.092-2.399-.065.359-.161-.338-.16-.432-.165-.35-.023-.695.002-1.041-.009-.574-.018-1.168-.18-1.732-.285-.732-.137-1.45-.378-2.174-.555a11.114 11.114 0 0 1-1.941-.65c-1.262-.566-2.567-1.284-3.687-2.096-.5-.363-.909-.81-1.356-1.222-.123-.114-.203-.088-.341-.163-.053-.029-.05-.108-.067-.118a6.147 6.147 0 0 0-.254-.145c-.054.015-.11.028-.166.036a.447.447 0 0 1-.143-.071 1.665 1.665 0 0 1-.19-.122c-.146-.12-.179-.202-.347-.034 0-.21.033-.304-.116-.467-.104-.114-.226-.208-.329-.324-.085-.096-.493-.535-.19-.602-.21-.318-.588-.536-.764-.875-.16-.309-.37-.719-.588-1.06.163.023.44-.044.566.092.043.047.027.163.073.219.078.094.206.075.297.144l-.924-1.462c.237 0 .313-.275.513-.156.207.121.383.452.515.641.356.51.673 1.008 1.198 1.362.27.183.536.395.778.614.16.145.291.178.371.377.218.54.898.649 1.314 1.025.458.415.995.875 1.583 1.099.278.106.515.167.773.338.233.155.454.33.715.438.291.12.607.17.9.285.287.114.545.285.803.452.273.176.554.256.834.396.208.104.226.194.483.223.309.034.587.202.899.224.259.018.41.02.668.107.644.214 1.328.313 2.003.353.373.022.699.088 1.064.159.296.057.589.028.887.026.746-.006 1.457-.116 2.194-.215.725-.096 1.453-.167 2.176-.272.684-.099 1.288-.416 1.921-.674.65-.265 1.283-.467 1.878-.847.563-.36 1.16-.66 1.727-1.01.58-.36 1.15-.756 1.695-1.167.548-.415.989-.923 1.503-1.373.325-.284.62-.572.882-.916.106-.139.244-.3.297-.47.041-.131-.032-.226.05-.268l-.203-.067c.294-.098.356-.144.503-.386.066-.107.062-.217.123-.326.012-.022.06-.128.067-.134.09-.083.159-.081.229-.187.065-.1.075-.236.14-.336.038-.059.593-.572.242-.578l.206-.171c-1.205-.098-2.48.02-3.684.1-1.224.083-2.45.128-3.677.165-2.225.067-4.439.201-6.66.342-2.209.14-4.419.123-6.63.195-1.08.036-2.158.088-3.238.112-1.128.026-2.253-.016-3.381-.013-1.079.003-2.153.01-3.23-.046-.57-.03-1.152-.052-1.712-.165-.203-.04-.405-.102-.612-.121-.129-.012-.647.077-.647-.017l-.434.163.13-.217a1.574 1.574 0 0 1-.177.092c-.028-.1-.149-.225-.13-.333.012-.063.115-.058.136-.105.092-.206.1-.298.324-.39.507-.206 1.118-.236 1.657-.26 1.29-.06 2.576-.028 3.865-.043.637-.008 1.273-.034 1.91-.033.332 0 .664.002.995-.008.181-.005.422.046.549-.095.123-.136.079-.586.084-.746a9.044 9.044 0 0 0-.001-.817c-.009-.15-.085-.43-.017-.568.08-.16.192-.105.365-.105.007-.279-.232-.496-.231-.792 0-.256.046-.5.027-.759-.043-.566.151-1.073.151-1.629-.28 0-.22-.303-.22-.523 0-.345-.068-.676-.045-1.026.058-.87.01-1.727 0-2.596a10.52 10.52 0 0 1 .08-1.275c.045-.416.001-.822.036-1.235.072-.87.1-1.742.176-2.61-.732.838-1.354 1.765-2.06 2.626-.316.387-.635.782-.993 1.132-.175.171-.378.311-.546.487-.084.087-.156.186-.228.283-.06.08-.156.343-.189.09a2.24 2.24 0 0 1-.075.101c-.092-.115-.234-.17-.332-.278a4.16 4.16 0 0 1 .204-.17c-.332-.12.034-.463.142-.64.196-.319.372-.649.57-.966l.1.187c.085-.142.188-.282.243-.439.054-.152.053-.263.162-.392.224-.264.438-.522.64-.81.42-.592.83-1.19 1.238-1.792.829-1.223 1.615-2.475 2.507-3.655.86-1.137 1.745-2.255 2.612-3.387.902-1.18 1.732-2.424 2.59-3.636-1.027.104-2.067.081-3.075.329-1.024.251-2.04.577-3.005 1.003-3.123 1.38-5.76 3.886-7.521 6.781-.942 1.55-1.806 3.176-2.4 4.892a10.18 10.18 0 0 0-.567 2.704c-.029.416-.059.872-.225 1.26-.078.18-.213.293-.306.454-.1.175-.015.248-.018.45-.218-.057-.279.28-.058.365.284.11.24-.281.434-.44.312.311.214.802.261 1.2.053.454.206.892.27 1.343.029.201-.119.389-.025.57.033.066.114.101.146.17.04.088 0 .144.018.217.02.077.118.19.164.297.06.14.086.291.142.432-.158-.015-.247.05-.354.159-.063-.158-.386-.585-.22-.75a8.699 8.699 0 0 1-.167-.04c.06.44.18.814.18 1.263-.286-.287-.348-.46-.44-.846-.084-.354-.197-.7-.284-1.053-.117.059-.224.133-.336.2.092-.276.128-.463.058-.75-.061-.254-.159-.51-.166-.773-.003-.117.031-.229-.005-.342-.025-.08-.11-.095-.122-.188-.01-.089.077-.135.08-.219.002-.091-.057-.172-.085-.255-.196-.58-.255-1.244-.32-1.851-.065-.602-.1-1.204-.064-1.809.146-2.448 1.163-4.788 2.356-6.893.555-.977 1.215-1.871 1.924-2.741.684-.84 1.335-1.714 2.164-2.42 1.607-1.368 3.465-2.527 5.448-3.256 2.089-.769 4.405-.966 6.606-1.181 1.163-.114 2.324-.055 3.488.017 1.139.07 2.278.154 3.396.393 2.105.45 4.273 1.247 6.117 2.364.913.553 1.84 1.168 2.65 1.864.413.355.743.769 1.072 1.2.318.418.67.808.996 1.22zm-22.255 2.599c-.529.687-1.01 1.409-1.522 2.108 2.172.029 4.348-.152 6.518-.221 1.1-.035 2.195-.146 3.292-.23 1.103-.084 2.191-.02 3.295-.02-2.013-3.013-4.03-6-6.285-8.84-.64.63-1.09 1.417-1.593 2.152-.137.2-.276.4-.415.6-.088.127-.295.315-.328.466-.027.125.04.112-.02.28-.05.147-.134.29-.192.437-.045-.091-.089-.182-.135-.272-.035.049.02.179-.005.25-.04.11-.171.201-.247.287-.079.089-.147.241-.243.308-.088.061-.146.03-.216.083a.979.979 0 0 0-.203.248.243.243 0 0 0-.086.127c.02.028.046.051.078.068-.062.255-.298.53-.463.766-.026-.18-.113.048-.17.117-.079.098-.165.192-.239.295-.088.123-.136.193-.255.285-.163.127-.234.253-.339.439-.063.111-.145.157-.227.267-.056.072-.011.015 0 0zm13.408 5.505c-.014-.575.098-1.162-.244-1.654-.152-.219-.263-.318-.534-.319-.363 0-3.318.073-3.318.073.631.26 1.269.54 1.815.957.554.421 1.01.972 1.393 1.55.357.543.725 1.084.944 1.7l-.056-2.307zm-14.1-1.46c.036 1.066-.016 2.133-.073 3.197.438-.668 1.007-1.238 1.546-1.824.528-.574 1.091-1.125 1.762-1.531-1.077.069-2.157.11-3.236.158zm1.011 14.09c.93-.062 1.868-.049 2.8-.066-.307-.148-.65-.205-.947-.375-.212-.122-.395-.286-.612-.4-.126-.066-.384-.123-.467-.25-.109-.165.073-.191.058-.335-.022-.198-.436-.301-.564-.448-.196-.225-.352-.492-.527-.733-.371-.512-.622-1.025-.872-1.605-.005 1.093.122 2.18.194 3.27 0 .254-.123.743.015.906.131.155.73.048.922.035zm2.591-1.591c1.493.789 3.6.612 5.149.114 1.455-.469 2.435-1.624 3.065-2.977.077-.166.149-.335.217-.505.034-.086.177-.33.172-.426-.005-.108-.107-.084-.135-.19-.03-.111.107-.266.156-.36.225-.44.333-.86.371-1.35.03-.393.126-.777.155-1.167.034-.448-.124-.96-.242-1.392a3.348 3.348 0 0 0-.464-.984c-.47-.7-1.113-1.13-1.79-1.602-.653-.454-1.327-.964-2.131-1.094-.406-.066-.828-.053-1.239-.047-.373.006-.452.073-.452.438-.172-.057-.862.184-.658-.2-.336-.007-.638.18-.931.318-.2.094-.666.196-.805.367-.056.07-.015.116-.053.195-.048.102-.18.18-.27.238-.169.106-.268.114-.422.167-.258.09-.453.41-.697.552-.28.164-.428.36-.614.62-.169.239-.377.4-.44.693-.07.323-.223.438-.502.602l.011-.113c-.13.083-.22.544-.268.686-.06.177-.213.284-.27.444-.086.236.09.118.133.302.017.075-.131.256-.157.33-.05.143-.053.298-.098.443-.063.205-.24.633-.522.437-.02.814.03 1.627.015 2.44a.275.275 0 0 1 .199-.092c-.042-.155-.216-.41-.103-.568.17-.24.29.036.34.173.176.49.602.916.867 1.37.135.233.248.483.42.692.18.218.415.411.617.61.411.406.907.631 1.431.86.028.011.024.01.006.002.042.018-.028-.01-.061-.026zm6.821 1.251l3.855-.134c-.17-1.284-.316-2.574-.332-3.87-.313.63-.614 1.27-1.033 1.839-.191.26-.4.513-.637.732-.255.235-.564.405-.81.65a4.74 4.74 0 0 1-.108.097l-.035.033c.03-.031.08-.089.123-.12a.51.51 0 0 1 .007-.007c-.149.074-.305.275-.436.376-.19.147-.387.284-.594.404zm12.098-.304c.168.007.694.13.688-.14-.002-.119-.217-.317-.278-.396-.1-.133-1.8-2.364-2.238-2.944-1.631-2.163-2.918-4.569-4.555-6.728l-.06 2.412c-.006.202.084.355.1.574.005.08-.022.218.008.292.048.12.048.093.214.095-.087.087-.247.182-.212.329l-.134-.054c0 .203-.048.445.02.642.024.07.08.124.104.188.048.132.025.21.037.35a7.225 7.225 0 0 0-.148-.036c0 .219-.03.43.024.645.054.217.173.413.234.627l-.29-.116c-.007.15.154.154.226.313.062.134.07.308.079.453.008.139-.033.32.01.451.054.17.116.158.28.24-.277.093-.263.068-.21.349.031.168.032.332.12.486-.101 0-.207-.007-.291.055-.088.065-.085.252-.19.173 0 .074-.036.265-.009.339.038.104.05.027.107.104a.49.49 0 0 1 .11.25c.007.063-.106.433-.22.41-.02.071-.055.148-.06.202-.014.143-.006.35.1.461l.042-.083c.12.09.178.179.332.202.14.02.321-.018.464-.022.363-.012.724-.018 1.087-.043.81-.055 1.617-.076 2.429-.076.69 0 1.39-.034 2.08-.004zm2.04-9.388c.024-.62.022-1.25-.097-1.862-.112.112-.126-.047-.17-.149a.694.694 0 0 1-.079-.17 22.795 22.795 0 0 0-.1-.54c-.09-.45-.082-.91-.181-1.365-.192-.878-.433-1.785-.777-2.617-.554-1.343-1.579-2.412-2.506-3.503a46.31 46.31 0 0 0-1.674-1.891c-.276-.29-.538-.577-.884-.785-.305-.183-.63-.337-.946-.501C33 7.763 31.511 7.11 29.959 6.67a19.654 19.654 0 0 0-2.509-.526c-.859-.126-1.725-.13-2.584-.237 1.353 1.584 2.519 3.317 3.77 4.98.666.883 1.336 1.765 1.956 2.681.251.372.5.745.754 1.114.168.245.405.608.741.608l1.546-.002c-.212.213-.264.281-.253.592.01.285-.008.57-.005.855.003.264-.025.635.064.888.09.251.327.474.478.694.787 1.146 1.503 2.338 2.3 3.477.804 1.15 1.586 2.315 2.395 3.462.782 1.108 1.46 2.285 2.226 3.403.029-.235.152-.424.163-.671.006-.137-.038-.414.171-.396-.045-.156-.22-.549.053-.551.234-.002.297.216.33-.158.055-.64.014-1.262.137-1.897.028-.145.074-.326.028-.473-.036-.113-.12-.139-.169-.231-.052-.099-.094-.643-.007-.745.076-.09.231.065.262-.16.028-.203-.196-.4-.156-.604-.05.03-.098.062-.145.096.03-.282-.058-.56-.038-.842.173.058.176-.204.209-.305l.168.167zM9.402 23.104l.103-.071c-.224.065-.218-.134-.156-.276.088-.2.303-.332.421-.515.06.064.126.121.202.165.148-.186.296-.37.451-.55.157.215.385.117.208.42-.108.185-.258.337-.398.497.04.087.125.135.112.256-.024.222-.4.625-.554.79-.138.146-.268.079-.367.246-.056.094-.023.18-.112.277-.06.064-.154.093-.216.154-.119.115-.162.316-.305.404-.176.108-.346.082-.34-.123-.116.018-.228.056-.342.085.124-.202.239-.426.39-.608.11-.131.256-.225.368-.353.119-.136.169-.305.281-.443.103-.126.187-.204.254-.355z"/>
</svg>
