<svg xmlns="http://www.w3.org/2000/svg" width="48" height="48" viewBox="0 0 48 48">
  <path d="M11.83 30.944c-12.26-3.666-11.277-10.794 0-14.01C8.624 4.419 15.874 1.797 23.985 9.927c8.194-8.13 15.362-5.344 12.238 7.13 10.442 2.562 12.899 10.336 0 14.01 3.097 11.777-3.438 15.581-12.196 7.007-9.259 8.826-15.158 4.033-12.197-7.13zm14.502 1.567c-1.43.057-2.982.05-4.614 0a38.859 38.859 0 0 0 2.307 2.76 39.293 39.293 0 0 0 2.307-2.76zm-8.487-2.225a39.556 39.556 0 0 1-2.35-4.04 44.669 44.669 0 0 0-1.276 3.421c1.153.247 2.349.453 3.626.619zm-3.628-11.953a27.404 27.404 0 0 0 1.277 3.462 44.795 44.795 0 0 1 2.35-4.08c-1.278.165-2.473.371-3.627.618zm13.56-.904a59.106 59.106 0 0 0-7.501 0c-1.473 2.208-2.751 4.394-3.792 6.551a49.593 49.593 0 0 0 3.792 6.552c2.45.142 4.953.137 7.502 0 1.484-2.245 2.76-4.433 3.79-6.552a57.033 57.033 0 0 0-3.79-6.551zm4.822 4.327a39.419 39.419 0 0 0 1.277-3.462 44.52 44.52 0 0 0-3.626-.619 48.524 48.524 0 0 1 2.349 4.08zm0 4.451a51.438 51.438 0 0 1-2.35 4.038 44.521 44.521 0 0 0 3.627-.618 43.105 43.105 0 0 0-1.277-3.42zm-7.254 10.467c7.011 6.826 11.49 5.27 9.026-5.193-1.732.412-3.586.7-5.523.865-1.154 1.607-2.307 3.05-3.503 4.328zm10.346-7.5c2.783-.836 7.286-2.447 7.376-5.194.06-1.854-2.76-3.874-7.377-5.193-.493 1.69-1.194 3.421-2.018 5.193a43.28 43.28 0 0 1 2.02 5.194zm-1.28-12.694c2.615-11.05-2.426-11.572-9.026-5.193a38.094 38.094 0 0 1 3.503 4.328 52.99 52.99 0 0 1 5.523.865zm-8.077-1.03a51.16 51.16 0 0 0-2.307-2.761 39.293 39.293 0 0 0-2.308 2.76 59.017 59.017 0 0 1 4.615 0zm-3.628-4.163c-7.446-7.216-11.4-4.635-9.026 5.193 1.733-.412 3.586-.7 5.524-.865 1.153-1.609 2.307-3.051 3.502-4.328zM12.363 29.174c.493-1.648 1.194-3.42 2.018-5.192a43.279 43.279 0 0 1-2.02-5.193c-4.12 1.168-7.42 3.12-7.375 5.191.04 1.855 2.76 3.876 7.377 5.194zm1.319 2.307c-2.437 10.298 1.742 12.074 9.026 5.193a38.093 38.093 0 0 1-3.503-4.328 52.99 52.99 0 0 1-5.523-.865zm8.424-4.184c-2.55-1.47-2.55-5.164 0-6.633 2.55-1.47 5.753.377 5.753 3.316 0 2.94-3.204 4.787-5.753 3.317z"/>
</svg>
