<svg xmlns="http://www.w3.org/2000/svg" width="48" height="48" viewBox="0 0 48 48">
  <path d="M26.567 40.455a28.448 28.448 0 0 0 2.168-1.734c9.237 3.67 12.25-3.503 12.01-6.24-.267-3.031-4.03-11.681-16.828-11.682-.602 1.41-2.361 2.118-3.817 1.275-1.786-1.034-1.786-3.635 0-4.67 1.388-.803 3.051-.197 3.725 1.083 7.77-.04 16.48 3.26 18.916 12.443 1.757 6.622-5.614 14.342-16.174 9.525zm4.78-9.365c-2.798 5.333-6.773 7.987-10.44 9.505-13.56 5.616-22.217-8.805-10.19-17.868.144.77.433 1.83.626 2.457-6.69 5.504-3.82 11.485-1.038 13.156 5.025 3.017 14.546-.091 18.81-8.04-1.189-1.203-.996-3.316.58-4.223 1.795-1.035 4.052.265 4.052 2.334 0 1.454-1.115 2.527-2.4 2.679zM16.68 34.167c-1.35-.777-1.686-2.435-1.01-3.651-7.012-12.939-.226-20.492 2.313-22.639 3.388-2.864 13.961-4.158 15.713 9.984l-2.409-.723C28.594-.442 7.653 10.591 17.599 29.169c1.566-.254 3.14.936 3.14 2.663 0 2.069-2.26 3.37-4.058 2.335z"/>
</svg>
