<svg xmlns="http://www.w3.org/2000/svg" width="48" height="48" viewBox="0 0 48 48">
  <path d="M42.323 18.5c4.125 13.75.928 19.698-12.823 23.823-13.75 4.125-19.698.928-23.823-12.823C1.552 15.75 4.749 9.802 18.5 5.677 32.25 1.552 38.198 4.749 42.323 18.5zm-6.939 8.922c1.087-.352 1.663-1.535 1.311-2.623-.352-1.087-1.535-1.662-2.622-1.31l-2.59.863-1.727-5.149 2.59-.863c1.087-.352 1.663-1.535 1.311-2.622-.351-1.088-1.535-1.663-2.622-1.311l-2.59.863-.895-2.686c-.352-1.087-1.535-1.663-2.623-1.311-1.087.352-1.662 1.535-1.31 2.622l.895 2.686-5.34 1.79-.896-2.685c-.352-1.088-1.535-1.663-2.622-1.311-1.087.351-1.663 1.535-1.311 2.622l.895 2.686-2.59.863c-1.087.352-1.663 1.535-1.311 2.623.288.831 1.087 1.375 1.918 1.407.224.032.48-.032.704-.096l2.59-.864 1.727 5.149-2.59.863c-1.088.352-1.663 1.535-1.311 2.622.287.832 1.087 1.375 1.918 1.407.224.032.48-.032.704-.096l2.59-.863.895 2.686c.288.832 1.088 1.375 1.92 1.407.223.032.479-.032.703-.096 1.087-.352 1.662-1.535 1.31-2.622l-.895-2.686 5.34-1.79.896 2.685c.288.832 1.087 1.375 1.919 1.407.224.032.48-.032.703-.096 1.087-.351 1.663-1.535 1.311-2.622l-.895-2.686 2.59-.863zm-14.916-5.075l5.336-1.787 1.727 5.154-5.337 1.788-1.726-5.155z"/>
</svg>
