<svg xmlns="http://www.w3.org/2000/svg" width="48" height="48" viewBox="0 0 48 48">
  <path d="M34.783 40.37c-4.995 2.886-11.863 3.183-18.773.221-5.595-2.38-10.237-6.547-13.213-11.308 1.428 1.19 3.095 2.143 4.88 2.976 7.136 3.345 14.27 3.116 19.292.008a.054.054 0 0 1-.008-.008C19.82 26.783 13.748 19.64 9.225 13.809c-.953-.953-1.667-2.143-2.381-3.214 5.476 5 14.166 11.308 17.26 13.094-6.546-6.905-12.38-15.475-12.142-15.237 10.357 10.475 20 16.427 20 16.427.318.18.564.33.762.464.209-.531.392-1.083.546-1.654 1.667-6.071-.237-12.976-4.404-18.689 9.641 5.833 15.356 16.784 12.974 25.95-.062.247-.13.491-.202.731.028.033.056.067.083.103 4.761 5.952 3.452 12.26 2.857 11.07-2.583-5.054-7.364-3.508-9.794-2.483z"/>
</svg>
