<svg xmlns="http://www.w3.org/2000/svg" width="48" height="48" viewBox="0 0 48 48">
  <path d="M6 24V6h36v36H6V24zm7.96.12l-.01 1.474H18.635v13.314h3.315V25.594H26.635v-1.446c0-.8-.017-1.469-.04-1.486-.017-.023-2.868-.034-6.325-.028l-6.292.017-.017 1.468zm21.088-1.511c-.622-.154-2.097-.2-2.731-.08-1.954.371-3.309 1.623-3.691 3.417-.109.514-.075 1.789.062 2.297.166.612.566 1.343.989 1.8.731.789 1.531 1.286 3.389 2.086 1.622.703 2.194 1.04 2.474 1.44.217.314.268.497.268.914 0 .463-.137.777-.468 1.08-.777.697-2.354.783-3.503.177-.4-.211-1.063-.845-1.366-1.308l-.217-.32-1.034.6c-.572.331-1.177.68-1.337.771a2.69 2.69 0 0 0-.332.212c-.04.068.606 1.023.937 1.388.846.937 2.218 1.652 3.663 1.909.663.12 2.126.137 2.743.028 1.994-.337 3.412-1.354 3.983-2.851.52-1.377.349-3.229-.417-4.389-.686-1.04-1.789-1.771-4.366-2.88-1.4-.605-1.846-.902-2.086-1.4a1.32 1.32 0 0 1-.154-.674c-.006-.954.697-1.526 1.789-1.451.743.051 1.228.343 1.691 1.017.154.228.292.377.326.354.948-.588 2.514-1.64 2.503-1.686-.04-.154-.532-.8-.863-1.154a4.481 4.481 0 0 0-2.252-1.297z"/>
</svg>
