<svg xmlns="http://www.w3.org/2000/svg" width="48" height="48" viewBox="0 0 48 48">
  <path d="M33.686 17.656L24 23.249l-9.685-5.593L24 12.328l9.685 5.328zm-8.828 7.08l9.652-5.575v10.494l-9.652 5.309V24.736zM7.262 34.898l5.95-3.437 9.93 5.46v6.96l-15.88-8.983zm15.88.066l-9.652-5.309V19.161l9.652 5.574v10.229zm1.716-30.845l16.3 9.222-5.736 3.312-10.564-5.812V4.12zm9.93 27.341l5.952 3.437-15.882 8.984v-6.96l9.93-5.46zm1.438-13.29L42 14.835v18.808l-5.774-3.334V18.17zm-23.647-1.517l-5.736-3.312 16.3-9.222v6.724l-10.564 5.81zm-.805 13.658L6 33.645v-18.81l5.774 3.335v12.14z"/>
</svg>
