<svg xmlns="http://www.w3.org/2000/svg" width="48" height="48" viewBox="0 0 48 48">
  <path d="M29.41 21L28 19.59 33.59 14 28 8.41 29.41 7 34 11.59V4h1l5.7 5.71L36.41 14l4.3 4.29L35 24h-1v-7.59L29.41 21zM36 7.83v3.76l1.88-1.88L36 7.83zm0 8.58v3.76l1.88-1.88L36 16.41zM40 33c-2.49 0-4.89-.4-7.14-1.14-.69-.22-1.48-.06-2.03.49l-4.4 4.41a30.171 30.171 0 0 1-13.18-13.17l4.4-4.41c.55-.55.71-1.34.49-2.03C17.4 14.9 17 12.49 17 10c0-1.11-.89-2-2-2H8c-1.11 0-2 .89-2 2 0 18.78 15.22 34 34 34 1.11 0 2-.89 2-2v-7c0-1.11-.89-2-2-2z"/>
</svg>
