<svg xmlns="http://www.w3.org/2000/svg" width="48" height="48" viewBox="0 0 48 48">
  <path d="M21.27 11.7V7.52c-1.6.41-3.09 1.07-4.46 1.92l2.93 2.93c.49-.25 1-.49 1.53-.67zM7 9.82l4.71 4.71A15.885 15.885 0 0 0 9.27 23c0 4.42 1.81 8.4 4.71 11.29L9.27 39h12V27l-4.47 4.47a11.909 11.909 0 0 1-2.16-14.01l16.17 16.17c-.49.26-1 .49-1.53.68v4.17c1.6-.41 3.09-1.07 4.46-1.92l4.72 4.72 2.55-2.55L9.54 7.27 7 9.82zM41.27 7h-12v12l4.47-4.47a11.909 11.909 0 0 1 2.16 14.01l2.93 2.93c1.54-2.46 2.44-5.35 2.44-8.47 0-4.42-1.81-8.4-4.71-11.29L41.27 7z"/>
</svg>
