<svg xmlns="http://www.w3.org/2000/svg" viewBox="0 0 48 48">
    <path d="M23.67 25.3c.687 1.064 1.03 2.356 1.03 3.872 0 1.569-.387 2.976-1.174 4.219a7.314 7.314 0 0 1-1.87 2.076c-.842.647-1.839 1.09-2.984 1.327-1.15.238-2.393.358-3.733.358H3.033V10.715h12.768c3.218.052 5.5.984 6.847 2.816.808 1.123 1.209 2.47 1.209 4.037 0 1.616-.406 2.91-1.222 3.892-.454.55-1.125 1.052-2.013 1.504 1.345.492 2.366 1.268 3.048 2.336zM9.13 21.137h5.594c1.15 0 2.08-.218 2.795-.655.715-.436 1.072-1.211 1.072-2.324 0-1.23-.472-2.046-1.42-2.44-.814-.272-1.856-.413-3.12-.413H9.13v5.832zm10 7.658c0-1.374-.561-2.323-1.682-2.833-.626-.289-1.51-.437-2.643-.448H9.13v7.046h5.587c1.148 0 2.036-.15 2.677-.464 1.156-.576 1.736-1.673 1.736-3.301zm26.223-4.301c.129.865.187 2.12.163 3.76H31.73c.076 1.903.733 3.234 1.979 3.995.751.478 1.662.711 2.729.711 1.125 0 2.042-.284 2.748-.869.384-.31.723-.747 1.017-1.299h5.053c-.132 1.124-.74 2.264-1.834 3.423-1.694 1.841-4.07 2.764-7.122 2.764-2.52 0-4.742-.778-6.67-2.33-1.923-1.557-2.888-4.083-2.888-7.586 0-3.285.866-5.8 2.605-7.55 1.746-1.753 3.999-2.626 6.775-2.626 1.646 0 3.13.294 4.453.885 1.32.592 2.41 1.524 3.269 2.805.777 1.127 1.277 2.431 1.51 3.917zm-4.974.493c-.093-1.316-.532-2.312-1.323-2.993-.785-.682-1.765-1.025-2.935-1.025-1.273 0-2.256.366-2.954 1.086-.703.719-1.14 1.695-1.32 2.932h8.532zm1.024-10.531H30.757v-2.644h10.647v2.644z"/>
</svg>
