<svg xmlns="http://www.w3.org/2000/svg" viewBox="0 0 48 48">
    <path d="M23.37 25.348c.712 1.102 1.068 2.44 1.068 4.01 0 1.625-.401 3.082-1.216 4.37a7.575 7.575 0 0 1-1.937 2.15c-.872.67-1.904 1.129-3.09 1.374-1.19.246-2.478.37-3.865.37H2V10.244h13.222c3.333.055 5.695 1.02 7.09 2.916.838 1.163 1.252 2.559 1.252 4.181 0 1.674-.42 3.013-1.265 4.03-.47.571-1.165 1.09-2.084 1.559 1.393.51 2.45 1.313 3.156 2.418zm-15.056-4.31h5.793c1.19 0 2.153-.226 2.894-.679.741-.451 1.11-1.254 1.11-2.407 0-1.273-.489-2.119-1.47-2.525-.843-.283-1.922-.429-3.231-.429H8.314v6.04zm10.355 7.93c0-1.423-.58-2.406-1.74-2.933-.65-.3-1.565-.453-2.739-.464H8.314v7.296h5.785c1.189 0 2.109-.156 2.773-.48 1.197-.597 1.797-1.733 1.797-3.42zm27.157-4.454c.133.895.193 2.195.169 3.894H31.716c.08 1.97.76 3.349 2.05 4.137.778.495 1.722.736 2.826.736 1.165 0 2.115-.294 2.846-.9.398-.32.75-.773 1.053-1.345h5.233c-.137 1.164-.767 2.345-1.9 3.545-1.754 1.906-4.214 2.863-7.374 2.863-2.611 0-4.912-.807-6.909-2.414-1.99-1.612-2.99-4.228-2.99-7.856 0-3.402.898-6.006 2.698-7.818 1.808-1.816 4.14-2.72 7.016-2.72 1.705 0 3.241.305 4.612.917 1.366.613 2.495 1.578 3.385 2.904.805 1.168 1.322 2.518 1.564 4.057zm-5.152.51c-.096-1.362-.55-2.394-1.37-3.099-.812-.707-1.828-1.061-3.039-1.061-1.318 0-2.336.379-3.059 1.124-.728.744-1.181 1.756-1.367 3.037h8.835zm1.061-10.905H30.71V11.38h11.026v2.739z"/>
</svg>
