<svg xmlns="http://www.w3.org/2000/svg" viewBox="0 0 48 48">
    <path d="M11.408 6H36.61c2.975 0 5.408 2.433 5.408 5.408v25.2c0 2.976-2.433 5.408-5.408 5.408h-25.2C8.433 42.016 6 39.584 6 36.608v-25.2C6 8.433 8.434 6 11.408 6zm8.57 6.921c-3.94 0-7.043 3.103-7.043 7.042v8.413c0 3.699 3.184 6.72 6.457 6.72h8.906c3.632 0 6.784-3.054 6.784-6.786v-5.323c0-.99-.288-1.657-1.491-1.657h-.973c-.954 0-1.517-.597-1.517-1.294v-.622c0-3.167-3.456-6.493-6.434-6.493h-4.69zm0 13.848h7.997c.71 0 1.291.58 1.291 1.29a1.3 1.3 0 0 1-1.29 1.292h-7.998c-.71 0-1.29-.581-1.29-1.291 0-.706.583-1.29 1.29-1.29zm0-8.02h4.025c.71 0 1.29.581 1.29 1.291 0 .706-.585 1.29-1.29 1.29h-4.025c-.71 0-1.29-.581-1.29-1.29 0-.707.583-1.29 1.29-1.29z"/>
</svg>
