<svg xmlns="http://www.w3.org/2000/svg" viewBox="0 0 48 48">
    <path d="M9.208 36.691c-3.049-3.623-4.572-7.793-4.572-12.508 0-3.148.703-6.092 2.11-8.829a19.22 19.22 0 0 1 5.798-6.81 19.005 19.005 0 0 1 8.212-3.461v12.253c0 4.243-1.064 8.115-3.196 11.61-2.132 3.498-4.915 6.078-8.352 7.745zm18.103-.858c-1.644-2.088-2.759-4.346-3.348-6.77-.573 2.424-1.68 4.682-3.322 6.77-1.643 2.088-3.626 3.865-5.95 5.329a18.941 18.941 0 0 0 9.272 2.375c3.32 0 6.417-.791 9.298-2.375a23.242 23.242 0 0 1-5.95-5.33zm14.023-20.479a19.233 19.233 0 0 0-5.799-6.81 18.997 18.997 0 0 0-8.212-3.461v12.253c0 4.243 1.064 8.115 3.197 11.61 2.13 3.494 4.914 6.075 8.353 7.745 3.05-3.623 4.57-7.793 4.57-12.508 0-3.147-.705-6.091-2.11-8.829z"/>
</svg>
