<svg xmlns="http://www.w3.org/2000/svg" viewBox="0 0 48 48">
    <path d="M37.415 39.467a.895.895 0 0 0-.708-.081 14.905 14.905 0 0 1-4.312.628c-6.991 0-12.658-4.728-12.658-10.56 0-5.833 5.667-10.561 12.658-10.561 6.99 0 12.657 4.728 12.657 10.56 0 3.222-1.729 6.107-4.454 8.044a.645.645 0 0 0-.25.69l.595 2.273c.179.68-.173.949-.782.596l-2.746-1.59zm-.852-11.681a1.718 1.718 0 1 0 0-3.436 1.718 1.718 0 0 0 0 3.436zm-8.388 0a1.718 1.718 0 1 0 0-3.436 1.718 1.718 0 0 0 0 3.436zm-14.98 4.013a1.229 1.229 0 0 0-.97.118L8.97 33.818c-.72.42-1.132.106-.917-.7l.715-2.667a.9.9 0 0 0-.348-.966c-3.249-2.321-5.307-5.764-5.307-9.607 0-6.99 6.81-12.658 15.21-12.658 7.592 0 13.884 4.63 15.025 10.68a17.093 17.093 0 0 0-.8-.018c-7.69 0-13.922 5.158-13.922 11.52 0 1.08.18 2.125.515 3.116a17.96 17.96 0 0 1-5.944-.719zm10.18-13.968a2.021 2.021 0 1 0 0-4.042 2.021 2.021 0 0 0 0 4.042zm-10.157 0a2.021 2.021 0 1 0 0-4.042 2.021 2.021 0 0 0 0 4.042z"/>
</svg>
