<svg xmlns="http://www.w3.org/2000/svg" width="48" height="48" viewBox="0 0 48 48">
  <path d="M24 12V4L14 14l10 10v-8c6.6 0 12 5.4 12 12s-5.4 12-12 12-12-5.4-12-12H8c0 8.8 7.2 16 16 16s16-7.2 16-16-7.2-16-16-16zm-2.2 22h-1.7v-6.5l-2 .6v-1.4l3.5-1.3h.2V34zm8.5-3.5c0 .6-.1 1.2-.2 1.6-.1.4-.3.8-.6 1.1-.3.3-.6.5-.9.7-.3.2-.7.2-1.2.2s-.8-.1-1.2-.2c-.4-.1-.7-.4-.9-.7-.2-.3-.5-.7-.6-1.1-.1-.4-.2-1-.2-1.6V29c0-.6.1-1.2.2-1.6.1-.4.3-.8.6-1.1.3-.3.6-.5.9-.7.3-.2.7-.2 1.2-.2s.8.1 1.2.2c.4.1.7.4.9.7.2.3.5.7.6 1.1.1.4.2 1 .2 1.6v1.5zm-1.6-1.7c0-.4 0-.7-.1-1-.1-.3-.1-.5-.2-.6-.1-.1-.2-.3-.4-.3s-.3-.1-.5-.1-.4 0-.5.1c-.1.1-.3.2-.4.3-.1.1-.2.4-.2.6 0 .2-.1.6-.1 1v1.9c0 .4 0 .7.1 1 .1.3.1.5.2.6.1.1.2.3.4.3s.3.1.5.1.4 0 .5-.1c.1-.1.3-.2.4-.3.1-.1.2-.4.2-.6 0-.2.1-.6.1-1v-1.9z"/>
</svg>
