<svg xmlns="http://www.w3.org/2000/svg" width="48" height="48" viewBox="0 0 48 48">
  <path d="M26 19.48l-6.1-4.58v18l6.1-4.58 5.9-4.42-5.9-4.42zm0 0l-6.1-4.58v18l6.1-4.58 5.9-4.42-5.9-4.42zm0 0l-6.1-4.58v18l6.1-4.58 5.9-4.42-5.9-4.42zM21.9 8.04V4c-4.02.4-7.68 2-10.64 4.42l2.84 2.86c2.22-1.72 4.88-2.88 7.8-3.24zM11.28 14.1l-2.86-2.84A19.898 19.898 0 0 0 4 21.9h4.04c.36-2.92 1.52-5.58 3.24-7.8zM8.04 25.9H4c.4 4.02 2 7.68 4.42 10.64l2.86-2.86c-1.72-2.2-2.88-4.86-3.24-7.78zm3.22 13.48c2.96 2.42 6.64 4.02 10.64 4.42v-4.04c-2.92-.36-5.58-1.52-7.8-3.24l-2.84 2.86zM43.9 23.9c0 10.32-7.84 18.84-17.9 19.9v-4.04C33.84 38.72 39.9 32 39.9 23.9S33.84 9.08 26 8.04V4c10.06 1.06 17.9 9.58 17.9 19.9z"/>
</svg>
